<svg xmlns="http://www.w3.org/2000/svg" xmlns:xlink="http://www.w3.org/1999/xlink" width="2000" zoomAndPan="magnify" viewBox="0 0 1500 1499.999933" height="2000" preserveAspectRatio="xMidYMid meet" version="1.0"><defs><g/><clipPath id="5f2852daa6"><rect x="0" width="1304" y="0" height="442"/></clipPath></defs><g transform="matrix(1, 0, 0, 1, 39, 534)"><g clip-path="url(#5f2852daa6)"><g fill="#ffffff" fill-opacity="1"><g transform="translate(9.527127, 203.663121)"><g><path d="M 128.535156 -156.652344 L 128.535156 8.222656 L 70.414062 8.222656 L 70.414062 -57.648438 L 78.640625 -57.648438 L 78.640625 -49.425781 L 50.441406 -49.425781 L 50.441406 -57.648438 L 58.667969 -57.648438 L 58.667969 8.222656 L 0.546875 8.222656 L 0.546875 -164.878906 L 58.667969 -164.878906 L 58.667969 -99.003906 L 50.441406 -99.003906 L 50.441406 -107.230469 L 78.640625 -107.230469 L 78.640625 -99.003906 L 70.414062 -99.003906 L 70.414062 -164.878906 L 128.535156 -164.878906 Z M 112.085938 -156.652344 L 120.308594 -156.652344 L 120.308594 -148.429688 L 78.640625 -148.429688 L 78.640625 -156.652344 L 86.863281 -156.652344 L 86.863281 -90.78125 L 42.21875 -90.78125 L 42.21875 -156.652344 L 50.441406 -156.652344 L 50.441406 -148.429688 L 8.773438 -148.429688 L 8.773438 -156.652344 L 16.996094 -156.652344 L 16.996094 0 L 8.773438 0 L 8.773438 -8.222656 L 50.441406 -8.222656 L 50.441406 0 L 42.21875 0 L 42.21875 -65.875 L 86.863281 -65.875 L 86.863281 0 L 78.640625 0 L 78.640625 -8.222656 L 120.308594 -8.222656 L 120.308594 0 L 112.085938 0 Z M 112.085938 -156.652344 "/></g></g></g><g fill="#ffffff" fill-opacity="1"><g transform="translate(137.983417, 203.663121)"><g><path d="M 62.347656 10.417969 C 42.078125 10.417969 26.269531 3.824219 14.914062 -9.359375 C 3.875 -22.179688 -1.644531 -39.949219 -1.644531 -62.660156 C -1.644531 -85.375 3.875 -103.144531 14.914062 -115.964844 C 26.269531 -129.148438 42.078125 -135.742188 62.347656 -135.742188 C 82.84375 -135.742188 98.714844 -129.136719 109.964844 -115.929688 C 120.882812 -103.117188 126.339844 -85.359375 126.339844 -62.660156 C 126.339844 -39.964844 120.882812 -22.207031 109.964844 -9.390625 C 98.714844 3.8125 82.84375 10.417969 62.347656 10.417969 Z M 62.347656 -6.03125 C 77.78125 -6.03125 89.476562 -10.707031 97.445312 -20.058594 C 105.742188 -29.800781 109.894531 -44.003906 109.894531 -62.660156 C 109.894531 -81.320312 105.742188 -95.523438 97.445312 -105.265625 C 89.476562 -114.617188 77.78125 -119.292969 62.347656 -119.292969 C 47.109375 -119.292969 35.453125 -114.605469 27.378906 -105.230469 C 18.996094 -95.496094 14.804688 -81.304688 14.804688 -62.660156 C 14.804688 -44.019531 18.996094 -29.828125 27.378906 -20.09375 C 35.453125 -10.71875 47.109375 -6.03125 62.347656 -6.03125 Z M 62.347656 -45.195312 C 63.21875 -45.195312 63.925781 -45.359375 64.472656 -45.6875 C 65.128906 -46.085938 65.757812 -46.804688 66.359375 -47.839844 C 68.230469 -51.054688 69.164062 -55.992188 69.164062 -62.660156 C 69.164062 -69.328125 68.230469 -74.269531 66.359375 -77.484375 C 65.757812 -78.519531 65.128906 -79.234375 64.472656 -79.632812 C 63.925781 -79.964844 63.21875 -80.128906 62.347656 -80.128906 C 61.476562 -80.128906 60.769531 -79.964844 60.226562 -79.632812 C 59.566406 -79.234375 58.9375 -78.519531 58.335938 -77.484375 C 56.46875 -74.269531 55.535156 -69.328125 55.535156 -62.660156 C 55.535156 -55.992188 56.46875 -51.054688 58.335938 -47.839844 C 58.9375 -46.804688 59.566406 -46.085938 60.226562 -45.6875 C 60.769531 -45.359375 61.476562 -45.195312 62.347656 -45.195312 Z M 62.347656 -28.746094 C 58.414062 -28.746094 54.867188 -29.703125 51.703125 -31.621094 C 48.652344 -33.46875 46.125 -36.117188 44.117188 -39.574219 C 40.761719 -45.339844 39.085938 -53.039062 39.085938 -62.660156 C 39.085938 -72.285156 40.761719 -79.980469 44.117188 -85.75 C 46.125 -89.207031 48.652344 -91.855469 51.703125 -93.703125 C 54.867188 -95.621094 58.414062 -96.578125 62.347656 -96.578125 C 66.28125 -96.578125 69.828125 -95.621094 72.992188 -93.703125 C 76.042969 -91.855469 78.574219 -89.207031 80.582031 -85.75 C 83.933594 -79.980469 85.613281 -72.285156 85.613281 -62.660156 C 85.613281 -53.039062 83.933594 -45.339844 80.582031 -39.574219 C 78.574219 -36.117188 76.042969 -33.46875 72.992188 -31.621094 C 69.828125 -29.703125 66.28125 -28.746094 62.347656 -28.746094 Z M 62.347656 -28.746094 "/></g></g></g><g fill="#ffffff" fill-opacity="1"><g transform="translate(262.680004, 203.663121)"><g><path d="M 76.761719 -135.742188 C 93.6875 -135.742188 106.726562 -128.878906 115.875 -115.160156 C 124.316406 -102.5 128.535156 -85 128.535156 -62.660156 C 128.535156 -40.324219 124.316406 -22.824219 115.875 -10.164062 C 106.726562 3.558594 93.6875 10.417969 76.761719 10.417969 C 69.097656 10.417969 62.324219 8.070312 56.4375 3.375 C 50.980469 -0.976562 46.46875 -7.277344 42.894531 -15.53125 L 50.441406 -18.796875 L 58.667969 -18.796875 L 58.667969 8.222656 L 0.546875 8.222656 L 0.546875 -164.878906 L 58.667969 -164.878906 L 58.667969 -106.523438 L 50.441406 -106.523438 L 42.894531 -109.792969 C 46.46875 -118.042969 50.980469 -124.347656 56.4375 -128.699219 C 62.324219 -133.394531 69.097656 -135.742188 76.761719 -135.742188 Z M 76.761719 -119.292969 C 72.933594 -119.292969 69.578125 -118.140625 66.695312 -115.839844 C 63.375 -113.191406 60.476562 -109 57.992188 -103.257812 L 42.21875 -106.523438 L 42.21875 -156.652344 L 50.441406 -156.652344 L 50.441406 -148.429688 L 8.773438 -148.429688 L 8.773438 -156.652344 L 16.996094 -156.652344 L 16.996094 0 L 8.773438 0 L 8.773438 -8.222656 L 50.441406 -8.222656 L 50.441406 0 L 42.21875 0 L 42.21875 -18.796875 L 57.992188 -22.066406 C 60.476562 -16.324219 63.375 -12.128906 66.695312 -9.484375 C 69.578125 -7.183594 72.933594 -6.03125 76.761719 -6.03125 C 87.820312 -6.03125 96.296875 -10.449219 102.1875 -19.289062 C 108.785156 -29.183594 112.085938 -43.644531 112.085938 -62.660156 C 112.085938 -81.679688 108.785156 -96.136719 102.1875 -106.035156 C 96.296875 -114.875 87.820312 -119.292969 76.761719 -119.292969 Z M 64.542969 -45.195312 C 65.414062 -45.195312 66.121094 -45.359375 66.664062 -45.6875 C 67.320312 -46.085938 67.953125 -46.804688 68.554688 -47.839844 C 70.421875 -51.054688 71.355469 -55.992188 71.355469 -62.660156 C 71.355469 -69.328125 70.421875 -74.269531 68.554688 -77.484375 C 67.953125 -78.519531 67.320312 -79.234375 66.664062 -79.632812 C 66.121094 -79.964844 65.414062 -80.128906 64.542969 -80.128906 C 63.851562 -80.128906 63.308594 -80 62.914062 -79.746094 C 62.363281 -79.394531 61.824219 -78.726562 61.296875 -77.738281 C 59.542969 -74.457031 58.667969 -69.433594 58.667969 -62.660156 C 58.667969 -55.890625 59.542969 -50.863281 61.296875 -47.585938 C 61.824219 -46.597656 62.363281 -45.929688 62.914062 -45.574219 C 63.308594 -45.320312 63.851562 -45.195312 64.542969 -45.195312 Z M 64.542969 -28.746094 C 60.636719 -28.746094 57.132812 -29.742188 54.027344 -31.734375 C 51.078125 -33.625 48.667969 -36.324219 46.792969 -39.828125 C 43.742188 -45.53125 42.21875 -53.140625 42.21875 -62.660156 C 42.21875 -72.183594 43.742188 -79.792969 46.792969 -85.496094 C 48.667969 -89 51.078125 -91.699219 54.027344 -93.589844 C 57.132812 -95.582031 60.636719 -96.578125 64.542969 -96.578125 C 68.472656 -96.578125 72.023438 -95.621094 75.1875 -93.703125 C 78.234375 -91.855469 80.765625 -89.207031 82.773438 -85.75 C 86.128906 -79.980469 87.804688 -72.285156 87.804688 -62.660156 C 87.804688 -53.039062 86.128906 -45.339844 82.773438 -39.574219 C 80.765625 -36.117188 78.234375 -33.46875 75.1875 -31.621094 C 72.023438 -29.703125 68.472656 -28.746094 64.542969 -28.746094 Z M 64.542969 -28.746094 "/></g></g></g><g fill="#ffffff" fill-opacity="1"><g transform="translate(389.569745, 203.663121)"><g><path d="M 76.761719 -135.742188 C 93.6875 -135.742188 106.726562 -128.878906 115.875 -115.160156 C 124.316406 -102.5 128.535156 -85 128.535156 -62.660156 C 128.535156 -40.324219 124.316406 -22.824219 115.875 -10.164062 C 106.726562 3.558594 93.6875 10.417969 76.761719 10.417969 C 69.097656 10.417969 62.324219 8.070312 56.4375 3.375 C 50.980469 -0.976562 46.46875 -7.277344 42.894531 -15.53125 L 50.441406 -18.796875 L 58.667969 -18.796875 L 58.667969 8.222656 L 0.546875 8.222656 L 0.546875 -164.878906 L 58.667969 -164.878906 L 58.667969 -106.523438 L 50.441406 -106.523438 L 42.894531 -109.792969 C 46.46875 -118.042969 50.980469 -124.347656 56.4375 -128.699219 C 62.324219 -133.394531 69.097656 -135.742188 76.761719 -135.742188 Z M 76.761719 -119.292969 C 72.933594 -119.292969 69.578125 -118.140625 66.695312 -115.839844 C 63.375 -113.191406 60.476562 -109 57.992188 -103.257812 L 42.21875 -106.523438 L 42.21875 -156.652344 L 50.441406 -156.652344 L 50.441406 -148.429688 L 8.773438 -148.429688 L 8.773438 -156.652344 L 16.996094 -156.652344 L 16.996094 0 L 8.773438 0 L 8.773438 -8.222656 L 50.441406 -8.222656 L 50.441406 0 L 42.21875 0 L 42.21875 -18.796875 L 57.992188 -22.066406 C 60.476562 -16.324219 63.375 -12.128906 66.695312 -9.484375 C 69.578125 -7.183594 72.933594 -6.03125 76.761719 -6.03125 C 87.820312 -6.03125 96.296875 -10.449219 102.1875 -19.289062 C 108.785156 -29.183594 112.085938 -43.644531 112.085938 -62.660156 C 112.085938 -81.679688 108.785156 -96.136719 102.1875 -106.035156 C 96.296875 -114.875 87.820312 -119.292969 76.761719 -119.292969 Z M 64.542969 -45.195312 C 65.414062 -45.195312 66.121094 -45.359375 66.664062 -45.6875 C 67.320312 -46.085938 67.953125 -46.804688 68.554688 -47.839844 C 70.421875 -51.054688 71.355469 -55.992188 71.355469 -62.660156 C 71.355469 -69.328125 70.421875 -74.269531 68.554688 -77.484375 C 67.953125 -78.519531 67.320312 -79.234375 66.664062 -79.632812 C 66.121094 -79.964844 65.414062 -80.128906 64.542969 -80.128906 C 63.851562 -80.128906 63.308594 -80 62.914062 -79.746094 C 62.363281 -79.394531 61.824219 -78.726562 61.296875 -77.738281 C 59.542969 -74.457031 58.667969 -69.433594 58.667969 -62.660156 C 58.667969 -55.890625 59.542969 -50.863281 61.296875 -47.585938 C 61.824219 -46.597656 62.363281 -45.929688 62.914062 -45.574219 C 63.308594 -45.320312 63.851562 -45.195312 64.542969 -45.195312 Z M 64.542969 -28.746094 C 60.636719 -28.746094 57.132812 -29.742188 54.027344 -31.734375 C 51.078125 -33.625 48.667969 -36.324219 46.792969 -39.828125 C 43.742188 -45.53125 42.21875 -53.140625 42.21875 -62.660156 C 42.21875 -72.183594 43.742188 -79.792969 46.792969 -85.496094 C 48.667969 -89 51.078125 -91.699219 54.027344 -93.589844 C 57.132812 -95.582031 60.636719 -96.578125 64.542969 -96.578125 C 68.472656 -96.578125 72.023438 -95.621094 75.1875 -93.703125 C 78.234375 -91.855469 80.765625 -89.207031 82.773438 -85.75 C 86.128906 -79.980469 87.804688 -72.285156 87.804688 -62.660156 C 87.804688 -53.039062 86.128906 -45.339844 82.773438 -39.574219 C 80.765625 -36.117188 78.234375 -33.46875 75.1875 -31.621094 C 72.023438 -29.703125 68.472656 -28.746094 64.542969 -28.746094 Z M 64.542969 -28.746094 "/></g></g></g><g fill="#ffffff" fill-opacity="1"><g transform="translate(509.253396, 203.663121)"><g><path d="M 21.027344 28.714844 L 36.691406 -17.96875 L 44.488281 -15.351562 L 36.8125 -12.398438 L -9.78125 -133.546875 L 49.332031 -133.546875 L 71.8125 -79.941406 L 64.226562 -76.761719 L 56.507812 -79.597656 L 76.347656 -133.546875 L 134.160156 -133.546875 L 72.535156 39.554688 L 17.390625 39.554688 Z M 36.621094 33.949219 L 28.824219 31.332031 L 28.824219 23.105469 L 66.734375 23.105469 L 66.734375 31.332031 L 58.988281 28.574219 L 114.753906 -128.082031 L 122.503906 -125.324219 L 122.503906 -117.097656 L 82.085938 -117.097656 L 82.085938 -125.324219 L 89.804688 -122.484375 L 64.730469 -54.296875 L 36.277344 -122.144531 L 43.863281 -125.324219 L 43.863281 -117.097656 L 2.191406 -117.097656 L 2.191406 -125.324219 L 9.871094 -128.277344 L 53.230469 -15.542969 Z M 36.621094 33.949219 "/></g></g></g><g fill="#ffffff" fill-opacity="1"><g transform="translate(9.527127, 398.584846)"><g/></g></g><g fill="#ffffff" fill-opacity="1"><g transform="translate(46.810762, 398.584846)"><g/></g></g><g fill="#ffffff" fill-opacity="1"><g transform="translate(84.100622, 398.584846)"><g><path d="M 128.535156 -156.652344 L 128.535156 8.222656 L 70.414062 8.222656 L 70.414062 -57.648438 L 78.640625 -57.648438 L 78.640625 -49.425781 L 50.441406 -49.425781 L 50.441406 -57.648438 L 58.667969 -57.648438 L 58.667969 8.222656 L 0.546875 8.222656 L 0.546875 -164.878906 L 58.667969 -164.878906 L 58.667969 -99.003906 L 50.441406 -99.003906 L 50.441406 -107.230469 L 78.640625 -107.230469 L 78.640625 -99.003906 L 70.414062 -99.003906 L 70.414062 -164.878906 L 128.535156 -164.878906 Z M 112.085938 -156.652344 L 120.308594 -156.652344 L 120.308594 -148.429688 L 78.640625 -148.429688 L 78.640625 -156.652344 L 86.863281 -156.652344 L 86.863281 -90.78125 L 42.21875 -90.78125 L 42.21875 -156.652344 L 50.441406 -156.652344 L 50.441406 -148.429688 L 8.773438 -148.429688 L 8.773438 -156.652344 L 16.996094 -156.652344 L 16.996094 0 L 8.773438 0 L 8.773438 -8.222656 L 50.441406 -8.222656 L 50.441406 0 L 42.21875 0 L 42.21875 -65.875 L 86.863281 -65.875 L 86.863281 0 L 78.640625 0 L 78.640625 -8.222656 L 120.308594 -8.222656 L 120.308594 0 L 112.085938 0 Z M 112.085938 -156.652344 "/></g></g></g><g fill="#ffffff" fill-opacity="1"><g transform="translate(212.556912, 398.584846)"><g><path d="M 126.339844 -125.324219 L 126.339844 8.222656 L 68.222656 8.222656 L 68.222656 -18.796875 L 76.445312 -18.796875 L 83.996094 -15.53125 C 80.421875 -7.277344 75.910156 -0.976562 70.453125 3.375 C 64.566406 8.070312 57.792969 10.417969 50.128906 10.417969 C 33.199219 10.417969 20.164062 3.558594 11.015625 -10.164062 C 2.574219 -22.824219 -1.644531 -40.324219 -1.644531 -62.660156 C -1.644531 -85 2.574219 -102.5 11.015625 -115.160156 C 20.164062 -128.878906 33.199219 -135.742188 50.128906 -135.742188 C 57.792969 -135.742188 64.566406 -133.394531 70.453125 -128.699219 C 75.910156 -124.347656 80.421875 -118.042969 83.996094 -109.792969 L 76.445312 -106.523438 L 68.222656 -106.523438 L 68.222656 -133.546875 L 126.339844 -133.546875 Z M 109.894531 -125.324219 L 118.117188 -125.324219 L 118.117188 -117.097656 L 76.445312 -117.097656 L 76.445312 -125.324219 L 84.671875 -125.324219 L 84.671875 -106.523438 L 68.898438 -103.257812 C 66.414062 -109 63.511719 -113.191406 60.195312 -115.839844 C 57.308594 -118.140625 53.953125 -119.292969 50.128906 -119.292969 C 39.070312 -119.292969 30.59375 -114.875 24.703125 -106.035156 C 18.101562 -96.136719 14.804688 -81.679688 14.804688 -62.660156 C 14.804688 -43.644531 18.101562 -29.183594 24.703125 -19.289062 C 30.59375 -10.449219 39.070312 -6.03125 50.128906 -6.03125 C 53.953125 -6.03125 57.308594 -7.183594 60.195312 -9.484375 C 63.511719 -12.128906 66.414062 -16.324219 68.898438 -22.066406 L 84.671875 -18.796875 L 84.671875 0 L 76.445312 0 L 76.445312 -8.222656 L 118.117188 -8.222656 L 118.117188 0 L 109.894531 0 Z M 62.347656 -45.195312 C 63.039062 -45.195312 63.582031 -45.320312 63.976562 -45.574219 C 64.523438 -45.929688 65.0625 -46.597656 65.59375 -47.585938 C 67.347656 -50.863281 68.222656 -55.890625 68.222656 -62.660156 C 68.222656 -69.433594 67.347656 -74.457031 65.59375 -77.738281 C 65.0625 -78.726562 64.523438 -79.394531 63.976562 -79.746094 C 63.582031 -80 63.039062 -80.128906 62.347656 -80.128906 C 61.476562 -80.128906 60.769531 -79.964844 60.226562 -79.632812 C 59.566406 -79.234375 58.9375 -78.519531 58.335938 -77.484375 C 56.46875 -74.269531 55.535156 -69.328125 55.535156 -62.660156 C 55.535156 -55.992188 56.46875 -51.054688 58.335938 -47.839844 C 58.9375 -46.804688 59.566406 -46.085938 60.226562 -45.6875 C 60.769531 -45.359375 61.476562 -45.195312 62.347656 -45.195312 Z M 62.347656 -28.746094 C 58.414062 -28.746094 54.867188 -29.703125 51.703125 -31.621094 C 48.652344 -33.46875 46.125 -36.117188 44.117188 -39.574219 C 40.761719 -45.339844 39.085938 -53.039062 39.085938 -62.660156 C 39.085938 -72.285156 40.761719 -79.980469 44.117188 -85.75 C 46.125 -89.207031 48.652344 -91.855469 51.703125 -93.703125 C 54.867188 -95.621094 58.414062 -96.578125 62.347656 -96.578125 C 66.253906 -96.578125 69.757812 -95.582031 72.859375 -93.589844 C 75.8125 -91.699219 78.222656 -89 80.097656 -85.496094 C 83.148438 -79.792969 84.671875 -72.183594 84.671875 -62.660156 C 84.671875 -53.140625 83.148438 -45.53125 80.097656 -39.828125 C 78.222656 -36.324219 75.8125 -33.625 72.859375 -31.734375 C 69.757812 -29.742188 66.253906 -28.746094 62.347656 -28.746094 Z M 62.347656 -28.746094 "/></g></g></g><g fill="#ffffff" fill-opacity="1"><g transform="translate(339.446653, 398.584846)"><g><path d="M 80.832031 -135.742188 C 96.394531 -135.742188 108.390625 -129.839844 116.820312 -118.042969 C 124.628906 -107.109375 128.535156 -91.988281 128.535156 -72.6875 L 128.535156 8.222656 L 70.414062 8.222656 L 70.414062 -56.707031 C 70.414062 -65.371094 69.5 -71.789062 67.664062 -75.953125 C 66.808594 -77.902344 66.082031 -78.875 65.480469 -78.875 C 64.632812 -78.875 63.769531 -78.226562 62.894531 -76.933594 C 61.054688 -74.210938 59.605469 -69.726562 58.550781 -63.484375 L 50.441406 -64.855469 L 58.667969 -64.855469 L 58.667969 8.222656 L 0.546875 8.222656 L 0.546875 -133.546875 L 58.667969 -133.546875 L 58.667969 -106.210938 L 50.441406 -106.210938 L 42.957031 -109.613281 C 46.707031 -117.871094 51.730469 -124.203125 58.019531 -128.613281 C 64.425781 -133.105469 71.949219 -135.480469 80.589844 -135.738281 L 80.710938 -135.742188 Z M 80.832031 -119.292969 L 80.832031 -127.515625 L 81.078125 -119.296875 C 75.722656 -119.136719 71.183594 -117.75 67.460938 -115.140625 C 63.621094 -112.449219 60.445312 -108.339844 57.929688 -102.808594 L 42.21875 -106.210938 L 42.21875 -125.324219 L 50.441406 -125.324219 L 50.441406 -117.097656 L 8.773438 -117.097656 L 8.773438 -125.324219 L 16.996094 -125.324219 L 16.996094 0 L 8.773438 0 L 8.773438 -8.222656 L 50.441406 -8.222656 L 50.441406 0 L 42.21875 0 L 42.21875 -65.546875 L 42.332031 -66.226562 C 45.613281 -85.625 53.328125 -95.324219 65.480469 -95.324219 C 69.503906 -95.324219 73.082031 -94.0625 76.207031 -91.542969 C 78.863281 -89.398438 81.035156 -86.410156 82.722656 -82.578125 C 85.484375 -76.300781 86.863281 -67.679688 86.863281 -56.707031 L 86.863281 0 L 78.640625 0 L 78.640625 -8.222656 L 120.308594 -8.222656 L 120.308594 0 L 112.085938 0 L 112.085938 -72.6875 C 112.085938 -88.476562 109.203125 -100.40625 103.433594 -108.480469 C 98.285156 -115.6875 90.753906 -119.292969 80.832031 -119.292969 Z M 80.832031 -119.292969 "/></g></g></g><g fill="#ffffff" fill-opacity="1"><g transform="translate(467.276339, 398.584846)"><g><path d="M 126.339844 -156.652344 L 126.339844 8.222656 L 68.222656 8.222656 L 68.222656 -18.796875 L 76.445312 -18.796875 L 83.996094 -15.53125 C 80.421875 -7.277344 75.910156 -0.976562 70.453125 3.375 C 64.566406 8.070312 57.792969 10.417969 50.128906 10.417969 C 33.199219 10.417969 20.164062 3.558594 11.015625 -10.164062 C 2.574219 -22.824219 -1.644531 -40.324219 -1.644531 -62.660156 C -1.644531 -85 2.574219 -102.5 11.015625 -115.160156 C 20.164062 -128.878906 33.199219 -135.742188 50.128906 -135.742188 C 57.792969 -135.742188 64.566406 -133.394531 70.453125 -128.699219 C 75.910156 -124.347656 80.421875 -118.042969 83.996094 -109.792969 L 76.445312 -106.523438 L 68.222656 -106.523438 L 68.222656 -164.878906 L 126.339844 -164.878906 Z M 109.894531 -156.652344 L 118.117188 -156.652344 L 118.117188 -148.429688 L 76.445312 -148.429688 L 76.445312 -156.652344 L 84.671875 -156.652344 L 84.671875 -106.523438 L 68.898438 -103.257812 C 66.414062 -109 63.511719 -113.191406 60.195312 -115.839844 C 57.308594 -118.140625 53.953125 -119.292969 50.128906 -119.292969 C 39.070312 -119.292969 30.59375 -114.875 24.703125 -106.035156 C 18.101562 -96.136719 14.804688 -81.679688 14.804688 -62.660156 C 14.804688 -43.644531 18.101562 -29.183594 24.703125 -19.289062 C 30.59375 -10.449219 39.070312 -6.03125 50.128906 -6.03125 C 53.953125 -6.03125 57.308594 -7.183594 60.195312 -9.484375 C 63.511719 -12.128906 66.414062 -16.324219 68.898438 -22.066406 L 84.671875 -18.796875 L 84.671875 0 L 76.445312 0 L 76.445312 -8.222656 L 118.117188 -8.222656 L 118.117188 0 L 109.894531 0 Z M 62.347656 -45.195312 C 63.039062 -45.195312 63.582031 -45.320312 63.976562 -45.574219 C 64.523438 -45.929688 65.0625 -46.597656 65.59375 -47.585938 C 67.347656 -50.863281 68.222656 -55.890625 68.222656 -62.660156 C 68.222656 -69.433594 67.347656 -74.457031 65.59375 -77.738281 C 65.0625 -78.726562 64.523438 -79.394531 63.976562 -79.746094 C 63.582031 -80 63.039062 -80.128906 62.347656 -80.128906 C 61.476562 -80.128906 60.769531 -79.964844 60.226562 -79.632812 C 59.566406 -79.234375 58.9375 -78.519531 58.335938 -77.484375 C 56.46875 -74.269531 55.535156 -69.328125 55.535156 -62.660156 C 55.535156 -55.992188 56.46875 -51.054688 58.335938 -47.839844 C 58.9375 -46.804688 59.566406 -46.085938 60.226562 -45.6875 C 60.769531 -45.359375 61.476562 -45.195312 62.347656 -45.195312 Z M 62.347656 -28.746094 C 58.414062 -28.746094 54.867188 -29.703125 51.703125 -31.621094 C 48.652344 -33.46875 46.125 -36.117188 44.117188 -39.574219 C 40.761719 -45.339844 39.085938 -53.039062 39.085938 -62.660156 C 39.085938 -72.285156 40.761719 -79.980469 44.117188 -85.75 C 46.125 -89.207031 48.652344 -91.855469 51.703125 -93.703125 C 54.867188 -95.621094 58.414062 -96.578125 62.347656 -96.578125 C 66.253906 -96.578125 69.757812 -95.582031 72.859375 -93.589844 C 75.8125 -91.699219 78.222656 -89 80.097656 -85.496094 C 83.148438 -79.792969 84.671875 -72.183594 84.671875 -62.660156 C 84.671875 -53.140625 83.148438 -45.53125 80.097656 -39.828125 C 78.222656 -36.324219 75.8125 -33.625 72.859375 -31.734375 C 69.757812 -29.742188 66.253906 -28.746094 62.347656 -28.746094 Z M 62.347656 -28.746094 "/></g></g></g><g fill="#ffffff" fill-opacity="1"><g transform="translate(594.166104, 398.584846)"><g><path d="M 0.546875 -164.878906 L 58.980469 -164.878906 L 58.980469 8.222656 L 0.546875 8.222656 Z M 16.996094 -148.429688 L 16.996094 -8.222656 L 42.53125 -8.222656 L 42.53125 -148.429688 Z M 16.996094 -148.429688 "/></g></g></g><g fill="#ffffff" fill-opacity="1"><g transform="translate(653.694564, 398.584846)"><g><path d="M 126.339844 -62.660156 C 126.339844 -60.023438 126.164062 -57.28125 125.808594 -54.433594 C 125.476562 -51.777344 125.085938 -49.226562 124.640625 -46.777344 L 123.414062 -40.023438 L 49.1875 -40.023438 L 49.1875 -48.25 L 57.109375 -50.460938 C 57.96875 -47.386719 59.019531 -45.242188 60.265625 -44.027344 C 60.964844 -43.34375 61.867188 -43 62.976562 -43 C 63.816406 -43 64.394531 -43.128906 64.699219 -43.382812 C 65.199219 -43.796875 65.636719 -44.683594 66.011719 -46.050781 L 68.035156 -53.386719 L 125.074219 -42.332031 L 122.171875 -33.46875 C 117.667969 -19.71875 110.289062 -8.984375 100.035156 -1.261719 C 89.695312 6.523438 77.132812 10.417969 62.347656 10.417969 C 42.078125 10.417969 26.269531 3.824219 14.914062 -9.359375 C 3.875 -22.179688 -1.644531 -39.949219 -1.644531 -62.660156 C -1.644531 -85.375 3.875 -103.144531 14.914062 -115.964844 C 26.269531 -129.148438 42.078125 -135.742188 62.347656 -135.742188 C 82.84375 -135.742188 98.714844 -129.136719 109.964844 -115.929688 C 120.882812 -103.117188 126.339844 -85.359375 126.339844 -62.660156 Z M 109.894531 -62.660156 C 109.894531 -81.320312 105.742188 -95.523438 97.445312 -105.265625 C 89.476562 -114.617188 77.78125 -119.292969 62.347656 -119.292969 C 47.109375 -119.292969 35.453125 -114.605469 27.378906 -105.230469 C 18.996094 -95.496094 14.804688 -81.304688 14.804688 -62.660156 C 14.804688 -44.019531 18.996094 -29.828125 27.378906 -20.09375 C 35.453125 -10.71875 47.109375 -6.03125 62.347656 -6.03125 C 73.464844 -6.03125 82.730469 -8.820312 90.140625 -14.402344 C 97.644531 -20.050781 103.109375 -28.113281 106.542969 -38.589844 L 114.359375 -36.03125 L 112.792969 -27.957031 L 72.375 -35.789062 L 73.941406 -43.863281 L 81.871094 -41.675781 C 80.574219 -36.984375 78.351562 -33.332031 75.195312 -30.714844 C 71.84375 -27.941406 67.769531 -26.550781 62.976562 -26.550781 C 57.398438 -26.550781 52.664062 -28.457031 48.765625 -32.261719 C 45.417969 -35.539062 42.917969 -40.128906 41.265625 -46.039062 L 38.355469 -56.472656 L 116.550781 -56.472656 L 116.550781 -48.25 L 108.457031 -49.722656 C 108.847656 -51.867188 109.191406 -54.121094 109.484375 -56.476562 C 109.757812 -58.644531 109.894531 -60.707031 109.894531 -62.660156 Z M 67.617188 -72.246094 C 66.367188 -76.5 65 -79.523438 63.519531 -81.324219 C 62.972656 -81.988281 62.582031 -82.320312 62.347656 -82.320312 C 61.0625 -82.320312 60.0625 -81.917969 59.351562 -81.109375 C 58.023438 -79.601562 57.019531 -76.945312 56.347656 -73.136719 L 48.25 -74.566406 L 48.25 -82.792969 L 75.507812 -82.792969 L 75.507812 -74.566406 Z M 86.5 -66.34375 L 38.445312 -66.34375 L 40.148438 -75.996094 C 41.359375 -82.839844 43.648438 -88.171875 47.015625 -91.992188 C 51.003906 -96.511719 56.113281 -98.769531 62.347656 -98.769531 C 72.089844 -98.769531 79.105469 -91.476562 83.398438 -76.886719 Z M 86.5 -66.34375 "/></g></g></g><g fill="#ffffff" fill-opacity="1"><g transform="translate(778.391151, 398.584846)"><g><path d="M 79.894531 -135.742188 C 88.222656 -135.742188 95.84375 -133.460938 102.753906 -128.898438 C 109.628906 -124.359375 115.058594 -117.597656 119.054688 -108.613281 L 121.292969 -103.570312 L 82.59375 -63.132812 L 76.871094 -71.484375 C 73.492188 -76.410156 69.484375 -78.875 64.855469 -78.875 C 65.167969 -78.875 65.460938 -78.9375 65.730469 -79.0625 L 65.734375 -79.011719 C 64.992188 -78.269531 64.203125 -76.890625 63.367188 -74.867188 C 61.179688 -69.578125 59.601562 -61.703125 58.632812 -51.25 L 50.441406 -52.007812 L 58.667969 -52.007812 L 58.667969 8.222656 L 0.546875 8.222656 L 0.546875 -133.546875 L 58.667969 -133.546875 L 58.667969 -106.523438 L 50.441406 -106.523438 L 42.933594 -109.875 C 46.570312 -118.027344 51.449219 -124.285156 57.574219 -128.652344 C 63.835938 -133.117188 71.191406 -135.476562 79.640625 -135.738281 L 79.765625 -135.742188 Z M 79.894531 -119.292969 L 79.894531 -127.515625 L 80.148438 -119.296875 C 75.019531 -119.136719 70.675781 -117.792969 67.121094 -115.257812 C 63.429688 -112.625 60.375 -108.597656 57.953125 -103.171875 L 42.21875 -106.523438 L 42.21875 -125.324219 L 50.441406 -125.324219 L 50.441406 -117.097656 L 8.773438 -117.097656 L 8.773438 -125.324219 L 16.996094 -125.324219 L 16.996094 0 L 8.773438 0 L 8.773438 -8.222656 L 50.441406 -8.222656 L 50.441406 0 L 42.21875 0 L 42.21875 -52.390625 L 42.253906 -52.765625 C 43.375 -64.871094 45.347656 -74.335938 48.167969 -81.160156 C 52.078125 -90.601562 57.640625 -95.324219 64.855469 -95.324219 C 75.261719 -95.324219 83.789062 -90.476562 90.4375 -80.785156 L 83.652344 -76.132812 L 77.710938 -81.820312 L 105.59375 -110.957031 L 111.539062 -105.273438 L 104.023438 -101.929688 C 101.332031 -107.984375 97.886719 -112.398438 93.691406 -115.171875 C 89.527344 -117.917969 84.929688 -119.292969 79.894531 -119.292969 Z M 79.894531 -119.292969 "/></g></g></g><g fill="#ffffff" fill-opacity="1"><g transform="translate(867.683942, 398.584846)"><g><path d="M 27.570312 10.417969 C 18.824219 10.417969 11.875 7.839844 6.714844 2.683594 C 1.558594 -2.472656 -1.019531 -9.425781 -1.019531 -18.171875 C -1.019531 -27.152344 1.496094 -34.117188 6.527344 -39.070312 C 11.523438 -43.988281 18.535156 -46.449219 27.570312 -46.449219 C 36.605469 -46.449219 43.621094 -43.988281 48.617188 -39.070312 C 53.644531 -34.117188 56.160156 -27.152344 56.160156 -18.171875 C 56.160156 -9.472656 53.664062 -2.550781 48.667969 2.59375 C 43.605469 7.808594 36.574219 10.417969 27.570312 10.417969 Z M 27.570312 -6.03125 C 31.9375 -6.03125 35.035156 -6.976562 36.863281 -8.859375 C 38.761719 -10.816406 39.710938 -13.921875 39.710938 -18.171875 C 39.710938 -22.558594 38.832031 -25.617188 37.074219 -27.351562 C 35.28125 -29.117188 32.113281 -30 27.570312 -30 C 23.027344 -30 19.859375 -29.117188 18.066406 -27.351562 C 16.308594 -25.617188 15.429688 -22.558594 15.429688 -18.171875 C 15.429688 -13.96875 16.402344 -10.894531 18.347656 -8.949219 C 20.292969 -7.003906 23.367188 -6.03125 27.570312 -6.03125 Z M 27.570312 -6.03125 "/></g></g></g><g fill="#ffffff" fill-opacity="1"><g transform="translate(917.18658, 398.584846)"><g><path d="M 126.339844 -125.324219 L 126.339844 8.222656 L 68.222656 8.222656 L 68.222656 -18.796875 L 76.445312 -18.796875 L 83.996094 -15.53125 C 80.421875 -7.277344 75.910156 -0.976562 70.453125 3.375 C 64.566406 8.070312 57.792969 10.417969 50.128906 10.417969 C 33.199219 10.417969 20.164062 3.558594 11.015625 -10.164062 C 2.574219 -22.824219 -1.644531 -40.324219 -1.644531 -62.660156 C -1.644531 -85 2.574219 -102.5 11.015625 -115.160156 C 20.164062 -128.878906 33.199219 -135.742188 50.128906 -135.742188 C 57.792969 -135.742188 64.566406 -133.394531 70.453125 -128.699219 C 75.910156 -124.347656 80.421875 -118.042969 83.996094 -109.792969 L 76.445312 -106.523438 L 68.222656 -106.523438 L 68.222656 -133.546875 L 126.339844 -133.546875 Z M 109.894531 -125.324219 L 118.117188 -125.324219 L 118.117188 -117.097656 L 76.445312 -117.097656 L 76.445312 -125.324219 L 84.671875 -125.324219 L 84.671875 -106.523438 L 68.898438 -103.257812 C 66.414062 -109 63.511719 -113.191406 60.195312 -115.839844 C 57.308594 -118.140625 53.953125 -119.292969 50.128906 -119.292969 C 39.070312 -119.292969 30.59375 -114.875 24.703125 -106.035156 C 18.101562 -96.136719 14.804688 -81.679688 14.804688 -62.660156 C 14.804688 -43.644531 18.101562 -29.183594 24.703125 -19.289062 C 30.59375 -10.449219 39.070312 -6.03125 50.128906 -6.03125 C 53.953125 -6.03125 57.308594 -7.183594 60.195312 -9.484375 C 63.511719 -12.128906 66.414062 -16.324219 68.898438 -22.066406 L 84.671875 -18.796875 L 84.671875 0 L 76.445312 0 L 76.445312 -8.222656 L 118.117188 -8.222656 L 118.117188 0 L 109.894531 0 Z M 62.347656 -45.195312 C 63.039062 -45.195312 63.582031 -45.320312 63.976562 -45.574219 C 64.523438 -45.929688 65.0625 -46.597656 65.59375 -47.585938 C 67.347656 -50.863281 68.222656 -55.890625 68.222656 -62.660156 C 68.222656 -69.433594 67.347656 -74.457031 65.59375 -77.738281 C 65.0625 -78.726562 64.523438 -79.394531 63.976562 -79.746094 C 63.582031 -80 63.039062 -80.128906 62.347656 -80.128906 C 61.476562 -80.128906 60.769531 -79.964844 60.226562 -79.632812 C 59.566406 -79.234375 58.9375 -78.519531 58.335938 -77.484375 C 56.46875 -74.269531 55.535156 -69.328125 55.535156 -62.660156 C 55.535156 -55.992188 56.46875 -51.054688 58.335938 -47.839844 C 58.9375 -46.804688 59.566406 -46.085938 60.226562 -45.6875 C 60.769531 -45.359375 61.476562 -45.195312 62.347656 -45.195312 Z M 62.347656 -28.746094 C 58.414062 -28.746094 54.867188 -29.703125 51.703125 -31.621094 C 48.652344 -33.46875 46.125 -36.117188 44.117188 -39.574219 C 40.761719 -45.339844 39.085938 -53.039062 39.085938 -62.660156 C 39.085938 -72.285156 40.761719 -79.980469 44.117188 -85.75 C 46.125 -89.207031 48.652344 -91.855469 51.703125 -93.703125 C 54.867188 -95.621094 58.414062 -96.578125 62.347656 -96.578125 C 66.253906 -96.578125 69.757812 -95.582031 72.859375 -93.589844 C 75.8125 -91.699219 78.222656 -89 80.097656 -85.496094 C 83.148438 -79.792969 84.671875 -72.183594 84.671875 -62.660156 C 84.671875 -53.140625 83.148438 -45.53125 80.097656 -39.828125 C 78.222656 -36.324219 75.8125 -33.625 72.859375 -31.734375 C 69.757812 -29.742188 66.253906 -28.746094 62.347656 -28.746094 Z M 62.347656 -28.746094 "/></g></g></g><g fill="#ffffff" fill-opacity="1"><g transform="translate(1044.076345, 398.584846)"><g><path d="M 76.761719 -135.742188 C 93.6875 -135.742188 106.726562 -128.878906 115.875 -115.160156 C 124.316406 -102.5 128.535156 -85 128.535156 -62.660156 C 128.535156 -40.324219 124.316406 -22.824219 115.875 -10.164062 C 106.726562 3.558594 93.6875 10.417969 76.761719 10.417969 C 69.097656 10.417969 62.324219 8.070312 56.4375 3.375 C 50.980469 -0.976562 46.46875 -7.277344 42.894531 -15.53125 L 50.441406 -18.796875 L 58.667969 -18.796875 L 58.667969 39.554688 L 0.546875 39.554688 L 0.546875 -133.546875 L 58.667969 -133.546875 L 58.667969 -106.523438 L 50.441406 -106.523438 L 42.894531 -109.792969 C 46.46875 -118.042969 50.980469 -124.347656 56.4375 -128.699219 C 62.324219 -133.394531 69.097656 -135.742188 76.761719 -135.742188 Z M 76.761719 -119.292969 C 72.933594 -119.292969 69.578125 -118.140625 66.695312 -115.839844 C 63.375 -113.191406 60.476562 -109 57.992188 -103.257812 L 42.21875 -106.523438 L 42.21875 -125.324219 L 50.441406 -125.324219 L 50.441406 -117.097656 L 8.773438 -117.097656 L 8.773438 -125.324219 L 16.996094 -125.324219 L 16.996094 31.332031 L 8.773438 31.332031 L 8.773438 23.105469 L 50.441406 23.105469 L 50.441406 31.332031 L 42.21875 31.332031 L 42.21875 -18.796875 L 57.992188 -22.066406 C 60.476562 -16.324219 63.375 -12.128906 66.695312 -9.484375 C 69.578125 -7.183594 72.933594 -6.03125 76.761719 -6.03125 C 87.820312 -6.03125 96.296875 -10.449219 102.1875 -19.289062 C 108.785156 -29.183594 112.085938 -43.644531 112.085938 -62.660156 C 112.085938 -81.679688 108.785156 -96.136719 102.1875 -106.035156 C 96.296875 -114.875 87.820312 -119.292969 76.761719 -119.292969 Z M 64.542969 -45.195312 C 65.414062 -45.195312 66.121094 -45.359375 66.664062 -45.6875 C 67.320312 -46.085938 67.953125 -46.804688 68.554688 -47.839844 C 70.421875 -51.054688 71.355469 -55.992188 71.355469 -62.660156 C 71.355469 -69.328125 70.421875 -74.269531 68.554688 -77.484375 C 67.953125 -78.519531 67.320312 -79.234375 66.664062 -79.632812 C 66.121094 -79.964844 65.414062 -80.128906 64.542969 -80.128906 C 63.851562 -80.128906 63.308594 -80 62.914062 -79.746094 C 62.363281 -79.394531 61.824219 -78.726562 61.296875 -77.738281 C 59.542969 -74.457031 58.667969 -69.433594 58.667969 -62.660156 C 58.667969 -55.890625 59.542969 -50.863281 61.296875 -47.585938 C 61.824219 -46.597656 62.363281 -45.929688 62.914062 -45.574219 C 63.308594 -45.320312 63.851562 -45.195312 64.542969 -45.195312 Z M 64.542969 -28.746094 C 60.636719 -28.746094 57.132812 -29.742188 54.027344 -31.734375 C 51.078125 -33.625 48.667969 -36.324219 46.792969 -39.828125 C 43.742188 -45.53125 42.21875 -53.140625 42.21875 -62.660156 C 42.21875 -72.183594 43.742188 -79.792969 46.792969 -85.496094 C 48.667969 -89 51.078125 -91.699219 54.027344 -93.589844 C 57.132812 -95.582031 60.636719 -96.578125 64.542969 -96.578125 C 68.472656 -96.578125 72.023438 -95.621094 75.1875 -93.703125 C 78.234375 -91.855469 80.765625 -89.207031 82.773438 -85.75 C 86.128906 -79.980469 87.804688 -72.285156 87.804688 -62.660156 C 87.804688 -53.039062 86.128906 -45.339844 82.773438 -39.574219 C 80.765625 -36.117188 78.234375 -33.46875 75.1875 -31.621094 C 72.023438 -29.703125 68.472656 -28.746094 64.542969 -28.746094 Z M 64.542969 -28.746094 "/></g></g></g><g fill="#ffffff" fill-opacity="1"><g transform="translate(1170.966061, 398.584846)"><g><path d="M 76.761719 -135.742188 C 93.6875 -135.742188 106.726562 -128.878906 115.875 -115.160156 C 124.316406 -102.5 128.535156 -85 128.535156 -62.660156 C 128.535156 -40.324219 124.316406 -22.824219 115.875 -10.164062 C 106.726562 3.558594 93.6875 10.417969 76.761719 10.417969 C 69.097656 10.417969 62.324219 8.070312 56.4375 3.375 C 50.980469 -0.976562 46.46875 -7.277344 42.894531 -15.53125 L 50.441406 -18.796875 L 58.667969 -18.796875 L 58.667969 39.554688 L 0.546875 39.554688 L 0.546875 -133.546875 L 58.667969 -133.546875 L 58.667969 -106.523438 L 50.441406 -106.523438 L 42.894531 -109.792969 C 46.46875 -118.042969 50.980469 -124.347656 56.4375 -128.699219 C 62.324219 -133.394531 69.097656 -135.742188 76.761719 -135.742188 Z M 76.761719 -119.292969 C 72.933594 -119.292969 69.578125 -118.140625 66.695312 -115.839844 C 63.375 -113.191406 60.476562 -109 57.992188 -103.257812 L 42.21875 -106.523438 L 42.21875 -125.324219 L 50.441406 -125.324219 L 50.441406 -117.097656 L 8.773438 -117.097656 L 8.773438 -125.324219 L 16.996094 -125.324219 L 16.996094 31.332031 L 8.773438 31.332031 L 8.773438 23.105469 L 50.441406 23.105469 L 50.441406 31.332031 L 42.21875 31.332031 L 42.21875 -18.796875 L 57.992188 -22.066406 C 60.476562 -16.324219 63.375 -12.128906 66.695312 -9.484375 C 69.578125 -7.183594 72.933594 -6.03125 76.761719 -6.03125 C 87.820312 -6.03125 96.296875 -10.449219 102.1875 -19.289062 C 108.785156 -29.183594 112.085938 -43.644531 112.085938 -62.660156 C 112.085938 -81.679688 108.785156 -96.136719 102.1875 -106.035156 C 96.296875 -114.875 87.820312 -119.292969 76.761719 -119.292969 Z M 64.542969 -45.195312 C 65.414062 -45.195312 66.121094 -45.359375 66.664062 -45.6875 C 67.320312 -46.085938 67.953125 -46.804688 68.554688 -47.839844 C 70.421875 -51.054688 71.355469 -55.992188 71.355469 -62.660156 C 71.355469 -69.328125 70.421875 -74.269531 68.554688 -77.484375 C 67.953125 -78.519531 67.320312 -79.234375 66.664062 -79.632812 C 66.121094 -79.964844 65.414062 -80.128906 64.542969 -80.128906 C 63.851562 -80.128906 63.308594 -80 62.914062 -79.746094 C 62.363281 -79.394531 61.824219 -78.726562 61.296875 -77.738281 C 59.542969 -74.457031 58.667969 -69.433594 58.667969 -62.660156 C 58.667969 -55.890625 59.542969 -50.863281 61.296875 -47.585938 C 61.824219 -46.597656 62.363281 -45.929688 62.914062 -45.574219 C 63.308594 -45.320312 63.851562 -45.195312 64.542969 -45.195312 Z M 64.542969 -28.746094 C 60.636719 -28.746094 57.132812 -29.742188 54.027344 -31.734375 C 51.078125 -33.625 48.667969 -36.324219 46.792969 -39.828125 C 43.742188 -45.53125 42.21875 -53.140625 42.21875 -62.660156 C 42.21875 -72.183594 43.742188 -79.792969 46.792969 -85.496094 C 48.667969 -89 51.078125 -91.699219 54.027344 -93.589844 C 57.132812 -95.582031 60.636719 -96.578125 64.542969 -96.578125 C 68.472656 -96.578125 72.023438 -95.621094 75.1875 -93.703125 C 78.234375 -91.855469 80.765625 -89.207031 82.773438 -85.75 C 86.128906 -79.980469 87.804688 -72.285156 87.804688 -62.660156 C 87.804688 -53.039062 86.128906 -45.339844 82.773438 -39.574219 C 80.765625 -36.117188 78.234375 -33.46875 75.1875 -31.621094 C 72.023438 -29.703125 68.472656 -28.746094 64.542969 -28.746094 Z M 64.542969 -28.746094 "/></g></g></g><g fill="#336bbc" fill-opacity="1"><g transform="translate(9.527127, 203.663121)"><g><path d="M 120.3125 -156.65625 L 120.3125 0 L 78.640625 0 L 78.640625 -57.640625 L 50.4375 -57.640625 L 50.4375 0 L 8.765625 0 L 8.765625 -156.65625 L 50.4375 -156.65625 L 50.4375 -99 L 78.640625 -99 L 78.640625 -156.65625 Z M 120.3125 -156.65625 "/></g></g></g><g fill="#336bbc" fill-opacity="1"><g transform="translate(137.983417, 203.663121)"><g><path d="M 62.34375 2.1875 C 44.59375 2.1875 30.859375 -3.445312 21.140625 -14.71875 C 11.429688 -26 6.578125 -41.976562 6.578125 -62.65625 C 6.578125 -83.332031 11.429688 -99.3125 21.140625 -110.59375 C 30.859375 -121.875 44.59375 -127.515625 62.34375 -127.515625 C 80.3125 -127.515625 94.097656 -121.875 103.703125 -110.59375 C 113.304688 -99.3125 118.109375 -83.332031 118.109375 -62.65625 C 118.109375 -41.976562 113.304688 -26 103.703125 -14.71875 C 94.097656 -3.445312 80.3125 2.1875 62.34375 2.1875 Z M 62.34375 -36.96875 C 67.144531 -36.96875 70.851562 -39.210938 73.46875 -43.703125 C 76.082031 -48.191406 77.390625 -54.507812 77.390625 -62.65625 C 77.390625 -70.800781 76.082031 -77.117188 73.46875 -81.609375 C 70.851562 -86.109375 67.144531 -88.359375 62.34375 -88.359375 C 57.539062 -88.359375 53.832031 -86.109375 51.21875 -81.609375 C 48.613281 -77.117188 47.3125 -70.800781 47.3125 -62.65625 C 47.3125 -54.507812 48.613281 -48.191406 51.21875 -43.703125 C 53.832031 -39.210938 57.539062 -36.96875 62.34375 -36.96875 Z M 62.34375 -36.96875 "/></g></g></g><g fill="#336bbc" fill-opacity="1"><g transform="translate(262.680004, 203.663121)"><g><path d="M 76.765625 -127.515625 C 90.753906 -127.515625 101.507812 -121.875 109.03125 -110.59375 C 116.550781 -99.3125 120.3125 -83.332031 120.3125 -62.65625 C 120.3125 -41.976562 116.550781 -26 109.03125 -14.71875 C 101.507812 -3.445312 90.753906 2.1875 76.765625 2.1875 C 65.273438 2.1875 56.5 -4.804688 50.4375 -18.796875 L 50.4375 0 L 8.765625 0 L 8.765625 -156.65625 L 50.4375 -156.65625 L 50.4375 -106.515625 C 56.5 -120.515625 65.273438 -127.515625 76.765625 -127.515625 Z M 64.546875 -36.96875 C 69.347656 -36.96875 73.050781 -39.210938 75.65625 -43.703125 C 78.269531 -48.191406 79.578125 -54.507812 79.578125 -62.65625 C 79.578125 -70.800781 78.269531 -77.117188 75.65625 -81.609375 C 73.050781 -86.109375 69.347656 -88.359375 64.546875 -88.359375 C 59.941406 -88.359375 56.4375 -86.109375 54.03125 -81.609375 C 51.632812 -77.117188 50.4375 -70.800781 50.4375 -62.65625 C 50.4375 -54.507812 51.632812 -48.191406 54.03125 -43.703125 C 56.4375 -39.210938 59.941406 -36.96875 64.546875 -36.96875 Z M 64.546875 -36.96875 "/></g></g></g><g fill="#336bbc" fill-opacity="1"><g transform="translate(389.569745, 203.663121)"><g><path d="M 76.765625 -127.515625 C 90.753906 -127.515625 101.507812 -121.875 109.03125 -110.59375 C 116.550781 -99.3125 120.3125 -83.332031 120.3125 -62.65625 C 120.3125 -41.976562 116.550781 -26 109.03125 -14.71875 C 101.507812 -3.445312 90.753906 2.1875 76.765625 2.1875 C 65.273438 2.1875 56.5 -4.804688 50.4375 -18.796875 L 50.4375 0 L 8.765625 0 L 8.765625 -156.65625 L 50.4375 -156.65625 L 50.4375 -106.515625 C 56.5 -120.515625 65.273438 -127.515625 76.765625 -127.515625 Z M 64.546875 -36.96875 C 69.347656 -36.96875 73.050781 -39.210938 75.65625 -43.703125 C 78.269531 -48.191406 79.578125 -54.507812 79.578125 -62.65625 C 79.578125 -70.800781 78.269531 -77.117188 75.65625 -81.609375 C 73.050781 -86.109375 69.347656 -88.359375 64.546875 -88.359375 C 59.941406 -88.359375 56.4375 -86.109375 54.03125 -81.609375 C 51.632812 -77.117188 50.4375 -70.800781 50.4375 -62.65625 C 50.4375 -54.507812 51.632812 -48.191406 54.03125 -43.703125 C 56.4375 -39.210938 59.941406 -36.96875 64.546875 -36.96875 Z M 64.546875 -36.96875 "/></g></g></g><g fill="#336bbc" fill-opacity="1"><g transform="translate(509.253396, 203.663121)"><g><path d="M 28.828125 31.328125 L 44.484375 -15.359375 L 2.1875 -125.328125 L 43.859375 -125.328125 L 64.234375 -76.765625 L 82.078125 -125.328125 L 122.5 -125.328125 L 66.734375 31.328125 Z M 28.828125 31.328125 "/></g></g></g><g fill="#336bbc" fill-opacity="1"><g transform="translate(9.527127, 398.584846)"><g/></g></g><g fill="#336bbc" fill-opacity="1"><g transform="translate(46.810762, 398.584846)"><g/></g></g><g fill="#336bbc" fill-opacity="1"><g transform="translate(84.100622, 398.584846)"><g><path d="M 120.3125 -156.65625 L 120.3125 0 L 78.640625 0 L 78.640625 -57.640625 L 50.4375 -57.640625 L 50.4375 0 L 8.765625 0 L 8.765625 -156.65625 L 50.4375 -156.65625 L 50.4375 -99 L 78.640625 -99 L 78.640625 -156.65625 Z M 120.3125 -156.65625 "/></g></g></g><g fill="#336bbc" fill-opacity="1"><g transform="translate(212.556912, 398.584846)"><g><path d="M 118.109375 -125.328125 L 118.109375 0 L 76.453125 0 L 76.453125 -18.796875 C 70.390625 -4.804688 61.613281 2.1875 50.125 2.1875 C 36.132812 2.1875 25.378906 -3.445312 17.859375 -14.71875 C 10.335938 -26 6.578125 -41.976562 6.578125 -62.65625 C 6.578125 -83.332031 10.335938 -99.3125 17.859375 -110.59375 C 25.378906 -121.875 36.132812 -127.515625 50.125 -127.515625 C 61.613281 -127.515625 70.390625 -120.515625 76.453125 -106.515625 L 76.453125 -125.328125 Z M 62.34375 -36.96875 C 66.9375 -36.96875 70.4375 -39.210938 72.84375 -43.703125 C 75.25 -48.191406 76.453125 -54.507812 76.453125 -62.65625 C 76.453125 -70.800781 75.25 -77.117188 72.84375 -81.609375 C 70.4375 -86.109375 66.9375 -88.359375 62.34375 -88.359375 C 57.539062 -88.359375 53.832031 -86.109375 51.21875 -81.609375 C 48.613281 -77.117188 47.3125 -70.800781 47.3125 -62.65625 C 47.3125 -54.507812 48.613281 -48.191406 51.21875 -43.703125 C 53.832031 -39.210938 57.539062 -36.96875 62.34375 -36.96875 Z M 62.34375 -36.96875 "/></g></g></g><g fill="#336bbc" fill-opacity="1"><g transform="translate(339.446653, 398.584846)"><g><path d="M 80.828125 -127.515625 C 93.566406 -127.515625 103.332031 -122.757812 110.125 -113.25 C 116.914062 -103.75 120.3125 -90.226562 120.3125 -72.6875 L 120.3125 0 L 78.640625 0 L 78.640625 -56.703125 C 78.640625 -66.523438 77.488281 -74.046875 75.1875 -79.265625 C 72.894531 -84.484375 69.660156 -87.09375 65.484375 -87.09375 C 57.960938 -87.09375 52.945312 -79.679688 50.4375 -64.859375 L 50.4375 0 L 8.765625 0 L 8.765625 -125.328125 L 50.4375 -125.328125 L 50.4375 -106.203125 C 56.707031 -119.992188 66.835938 -127.097656 80.828125 -127.515625 Z M 80.828125 -127.515625 "/></g></g></g><g fill="#336bbc" fill-opacity="1"><g transform="translate(467.276339, 398.584846)"><g><path d="M 118.109375 -156.65625 L 118.109375 0 L 76.453125 0 L 76.453125 -18.796875 C 70.390625 -4.804688 61.613281 2.1875 50.125 2.1875 C 36.132812 2.1875 25.378906 -3.445312 17.859375 -14.71875 C 10.335938 -26 6.578125 -41.976562 6.578125 -62.65625 C 6.578125 -83.332031 10.335938 -99.3125 17.859375 -110.59375 C 25.378906 -121.875 36.132812 -127.515625 50.125 -127.515625 C 61.613281 -127.515625 70.390625 -120.515625 76.453125 -106.515625 L 76.453125 -156.65625 Z M 62.34375 -36.96875 C 66.9375 -36.96875 70.4375 -39.210938 72.84375 -43.703125 C 75.25 -48.191406 76.453125 -54.507812 76.453125 -62.65625 C 76.453125 -70.800781 75.25 -77.117188 72.84375 -81.609375 C 70.4375 -86.109375 66.9375 -88.359375 62.34375 -88.359375 C 57.539062 -88.359375 53.832031 -86.109375 51.21875 -81.609375 C 48.613281 -77.117188 47.3125 -70.800781 47.3125 -62.65625 C 47.3125 -54.507812 48.613281 -48.191406 51.21875 -43.703125 C 53.832031 -39.210938 57.539062 -36.96875 62.34375 -36.96875 Z M 62.34375 -36.96875 "/></g></g></g><g fill="#336bbc" fill-opacity="1"><g transform="translate(594.166104, 398.584846)"><g><path d="M 50.75 -156.65625 L 50.75 0 L 8.765625 0 L 8.765625 -156.65625 Z M 50.75 -156.65625 "/></g></g></g><g fill="#336bbc" fill-opacity="1"><g transform="translate(653.694564, 398.584846)"><g><path d="M 118.109375 -62.65625 C 118.109375 -60.363281 117.953125 -57.960938 117.640625 -55.453125 C 117.328125 -52.941406 116.960938 -50.539062 116.546875 -48.25 L 49.1875 -48.25 C 51.695312 -39.269531 56.289062 -34.78125 62.96875 -34.78125 C 68.613281 -34.78125 72.269531 -37.804688 73.9375 -43.859375 L 114.359375 -36.03125 C 110.390625 -23.914062 103.960938 -14.515625 95.078125 -7.828125 C 86.203125 -1.148438 75.289062 2.1875 62.34375 2.1875 C 44.59375 2.1875 30.859375 -3.445312 21.140625 -14.71875 C 11.429688 -26 6.578125 -41.976562 6.578125 -62.65625 C 6.578125 -83.332031 11.429688 -99.3125 21.140625 -110.59375 C 30.859375 -121.875 44.59375 -127.515625 62.34375 -127.515625 C 80.3125 -127.515625 94.097656 -121.875 103.703125 -110.59375 C 113.304688 -99.3125 118.109375 -83.332031 118.109375 -62.65625 Z M 75.5 -74.5625 C 72.375 -85.21875 67.988281 -90.546875 62.34375 -90.546875 C 54.820312 -90.546875 50.125 -85.21875 48.25 -74.5625 Z M 75.5 -74.5625 "/></g></g></g><g fill="#336bbc" fill-opacity="1"><g transform="translate(778.391151, 398.584846)"><g><path d="M 79.890625 -127.515625 C 86.578125 -127.515625 92.6875 -125.6875 98.21875 -122.03125 C 103.75 -118.375 108.1875 -112.785156 111.53125 -105.265625 L 83.65625 -76.125 C 78.632812 -83.4375 72.367188 -87.09375 64.859375 -87.09375 C 61.304688 -87.09375 58.273438 -84.0625 55.765625 -78 C 53.265625 -71.945312 51.488281 -63.285156 50.4375 -52.015625 L 50.4375 0 L 8.765625 0 L 8.765625 -125.328125 L 50.4375 -125.328125 L 50.4375 -106.515625 C 56.5 -120.097656 66.316406 -127.097656 79.890625 -127.515625 Z M 79.890625 -127.515625 "/></g></g></g><g fill="#336bbc" fill-opacity="1"><g transform="translate(867.683942, 398.584846)"><g><path d="M 27.578125 2.1875 C 21.097656 2.1875 16.082031 0.414062 12.53125 -3.125 C 8.976562 -6.675781 7.203125 -11.691406 7.203125 -18.171875 C 7.203125 -31.535156 13.992188 -38.21875 27.578125 -38.21875 C 41.148438 -38.21875 47.9375 -31.535156 47.9375 -18.171875 C 47.9375 -11.691406 46.210938 -6.675781 42.765625 -3.125 C 39.316406 0.414062 34.253906 2.1875 27.578125 2.1875 Z M 27.578125 2.1875 "/></g></g></g><g fill="#336bbc" fill-opacity="1"><g transform="translate(917.18658, 398.584846)"><g><path d="M 118.109375 -125.328125 L 118.109375 0 L 76.453125 0 L 76.453125 -18.796875 C 70.390625 -4.804688 61.613281 2.1875 50.125 2.1875 C 36.132812 2.1875 25.378906 -3.445312 17.859375 -14.71875 C 10.335938 -26 6.578125 -41.976562 6.578125 -62.65625 C 6.578125 -83.332031 10.335938 -99.3125 17.859375 -110.59375 C 25.378906 -121.875 36.132812 -127.515625 50.125 -127.515625 C 61.613281 -127.515625 70.390625 -120.515625 76.453125 -106.515625 L 76.453125 -125.328125 Z M 62.34375 -36.96875 C 66.9375 -36.96875 70.4375 -39.210938 72.84375 -43.703125 C 75.25 -48.191406 76.453125 -54.507812 76.453125 -62.65625 C 76.453125 -70.800781 75.25 -77.117188 72.84375 -81.609375 C 70.4375 -86.109375 66.9375 -88.359375 62.34375 -88.359375 C 57.539062 -88.359375 53.832031 -86.109375 51.21875 -81.609375 C 48.613281 -77.117188 47.3125 -70.800781 47.3125 -62.65625 C 47.3125 -54.507812 48.613281 -48.191406 51.21875 -43.703125 C 53.832031 -39.210938 57.539062 -36.96875 62.34375 -36.96875 Z M 62.34375 -36.96875 "/></g></g></g><g fill="#336bbc" fill-opacity="1"><g transform="translate(1044.076345, 398.584846)"><g><path d="M 76.765625 -127.515625 C 90.753906 -127.515625 101.507812 -121.875 109.03125 -110.59375 C 116.550781 -99.3125 120.3125 -83.332031 120.3125 -62.65625 C 120.3125 -41.976562 116.550781 -26 109.03125 -14.71875 C 101.507812 -3.445312 90.753906 2.1875 76.765625 2.1875 C 65.273438 2.1875 56.5 -4.804688 50.4375 -18.796875 L 50.4375 31.328125 L 8.765625 31.328125 L 8.765625 -125.328125 L 50.4375 -125.328125 L 50.4375 -106.515625 C 56.5 -120.515625 65.273438 -127.515625 76.765625 -127.515625 Z M 64.546875 -36.96875 C 69.347656 -36.96875 73.050781 -39.210938 75.65625 -43.703125 C 78.269531 -48.191406 79.578125 -54.507812 79.578125 -62.65625 C 79.578125 -70.800781 78.269531 -77.117188 75.65625 -81.609375 C 73.050781 -86.109375 69.347656 -88.359375 64.546875 -88.359375 C 59.941406 -88.359375 56.4375 -86.109375 54.03125 -81.609375 C 51.632812 -77.117188 50.4375 -70.800781 50.4375 -62.65625 C 50.4375 -54.507812 51.632812 -48.191406 54.03125 -43.703125 C 56.4375 -39.210938 59.941406 -36.96875 64.546875 -36.96875 Z M 64.546875 -36.96875 "/></g></g></g><g fill="#336bbc" fill-opacity="1"><g transform="translate(1170.966061, 398.584846)"><g><path d="M 76.765625 -127.515625 C 90.753906 -127.515625 101.507812 -121.875 109.03125 -110.59375 C 116.550781 -99.3125 120.3125 -83.332031 120.3125 -62.65625 C 120.3125 -41.976562 116.550781 -26 109.03125 -14.71875 C 101.507812 -3.445312 90.753906 2.1875 76.765625 2.1875 C 65.273438 2.1875 56.5 -4.804688 50.4375 -18.796875 L 50.4375 31.328125 L 8.765625 31.328125 L 8.765625 -125.328125 L 50.4375 -125.328125 L 50.4375 -106.515625 C 56.5 -120.515625 65.273438 -127.515625 76.765625 -127.515625 Z M 64.546875 -36.96875 C 69.347656 -36.96875 73.050781 -39.210938 75.65625 -43.703125 C 78.269531 -48.191406 79.578125 -54.507812 79.578125 -62.65625 C 79.578125 -70.800781 78.269531 -77.117188 75.65625 -81.609375 C 73.050781 -86.109375 69.347656 -88.359375 64.546875 -88.359375 C 59.941406 -88.359375 56.4375 -86.109375 54.03125 -81.609375 C 51.632812 -77.117188 50.4375 -70.800781 50.4375 -62.65625 C 50.4375 -54.507812 51.632812 -48.191406 54.03125 -43.703125 C 56.4375 -39.210938 59.941406 -36.96875 64.546875 -36.96875 Z M 64.546875 -36.96875 "/></g></g></g></g></g></svg>