<svg xmlns="http://www.w3.org/2000/svg" xmlns:xlink="http://www.w3.org/1999/xlink" width="2000" zoomAndPan="magnify" viewBox="0 0 1500 1499.999933" height="2000" preserveAspectRatio="xMidYMid meet" version="1.0"><defs><g/><clipPath id="af8c9fd686"><path d="M 1283 413 L 1474.960938 413 L 1474.960938 641 L 1283 641 Z M 1283 413 " clip-rule="nonzero"/></clipPath><clipPath id="37287bb065"><rect x="0" width="1475" y="0" height="678"/></clipPath></defs><g transform="matrix(1, 0, 0, 1, 2, 383)"><g clip-path="url(#37287bb065)"><g fill="#ffffff" fill-opacity="1"><g transform="translate(14.609912, 320.254781)"><g><path d="M 202.304688 -246.5625 L 202.304688 12.945312 L 110.828125 12.945312 L 110.828125 -90.734375 L 123.773438 -90.734375 L 123.773438 -77.789062 L 79.394531 -77.789062 L 79.394531 -90.734375 L 92.335938 -90.734375 L 92.335938 12.945312 L 0.863281 12.945312 L 0.863281 -259.507812 L 92.335938 -259.507812 L 92.335938 -155.828125 L 79.394531 -155.828125 L 79.394531 -168.773438 L 123.773438 -168.773438 L 123.773438 -155.828125 L 110.828125 -155.828125 L 110.828125 -259.507812 L 202.304688 -259.507812 Z M 176.414062 -246.5625 L 189.359375 -246.5625 L 189.359375 -233.617188 L 123.773438 -233.617188 L 123.773438 -246.5625 L 136.71875 -246.5625 L 136.71875 -142.882812 L 66.449219 -142.882812 L 66.449219 -246.5625 L 79.394531 -246.5625 L 79.394531 -233.617188 L 13.808594 -233.617188 L 13.808594 -246.5625 L 26.753906 -246.5625 L 26.753906 0 L 13.808594 0 L 13.808594 -12.945312 L 79.394531 -12.945312 L 79.394531 0 L 66.449219 0 L 66.449219 -103.679688 L 136.71875 -103.679688 L 136.71875 0 L 123.773438 0 L 123.773438 -12.945312 L 189.359375 -12.945312 L 189.359375 0 L 176.414062 0 Z M 176.414062 -246.5625 "/></g></g></g><g fill="#ffffff" fill-opacity="1"><g transform="translate(216.790618, 320.254781)"><g><path d="M 98.132812 16.398438 C 66.230469 16.398438 41.347656 6.019531 23.476562 -14.730469 C 6.097656 -34.910156 -2.589844 -62.875 -2.589844 -98.625 C -2.589844 -134.375 6.097656 -162.339844 23.476562 -182.519531 C 41.347656 -203.269531 66.230469 -213.644531 98.132812 -213.644531 C 130.390625 -213.644531 155.371094 -203.253906 173.078125 -182.46875 C 190.261719 -162.296875 198.851562 -134.347656 198.851562 -98.625 C 198.851562 -62.902344 190.261719 -34.953125 173.078125 -14.78125 C 155.371094 6.003906 130.390625 16.398438 98.132812 16.398438 Z M 98.132812 -9.492188 C 122.417969 -9.492188 140.832031 -16.851562 153.371094 -31.570312 C 166.433594 -46.90625 172.960938 -69.257812 172.960938 -98.625 C 172.960938 -127.992188 166.433594 -150.34375 153.371094 -165.679688 C 140.832031 -180.398438 122.417969 -187.757812 98.132812 -187.757812 C 74.144531 -187.757812 55.800781 -180.378906 43.09375 -165.625 C 29.898438 -150.300781 23.300781 -127.96875 23.300781 -98.625 C 23.300781 -69.28125 29.898438 -46.949219 43.09375 -31.625 C 55.800781 -16.871094 74.144531 -9.492188 98.132812 -9.492188 Z M 98.132812 -71.132812 C 99.503906 -71.132812 100.617188 -71.394531 101.472656 -71.910156 C 102.507812 -72.539062 103.5 -73.667969 104.445312 -75.296875 C 107.386719 -80.355469 108.855469 -88.128906 108.855469 -98.625 C 108.855469 -109.121094 107.386719 -116.894531 104.445312 -121.953125 C 103.5 -123.582031 102.507812 -124.710938 101.472656 -125.339844 C 100.617188 -125.855469 99.503906 -126.117188 98.132812 -126.117188 C 96.761719 -126.117188 95.648438 -125.855469 94.789062 -125.339844 C 93.753906 -124.710938 92.765625 -123.582031 91.816406 -121.953125 C 88.875 -116.894531 87.40625 -109.121094 87.40625 -98.625 C 87.40625 -88.128906 88.875 -80.355469 91.816406 -75.296875 C 92.765625 -73.667969 93.753906 -72.539062 94.789062 -71.910156 C 95.648438 -71.394531 96.761719 -71.132812 98.132812 -71.132812 Z M 98.132812 -45.242188 C 91.941406 -45.242188 86.355469 -46.75 81.378906 -49.765625 C 76.578125 -52.675781 72.597656 -56.847656 69.433594 -62.285156 C 64.15625 -71.363281 61.515625 -83.476562 61.515625 -98.625 C 61.515625 -113.773438 64.15625 -125.886719 69.433594 -134.964844 C 72.597656 -140.402344 76.578125 -144.574219 81.378906 -147.484375 C 86.355469 -150.5 91.941406 -152.003906 98.132812 -152.003906 C 104.320312 -152.003906 109.90625 -150.5 114.886719 -147.484375 C 119.6875 -144.574219 123.667969 -140.402344 126.828125 -134.964844 C 132.105469 -125.886719 134.746094 -113.773438 134.746094 -98.625 C 134.746094 -83.476562 132.105469 -71.363281 126.828125 -62.285156 C 123.667969 -56.847656 119.6875 -52.675781 114.886719 -49.765625 C 109.90625 -46.75 104.320312 -45.242188 98.132812 -45.242188 Z M 98.132812 -45.242188 "/></g></g></g><g fill="#ffffff" fill-opacity="1"><g transform="translate(413.05383, 320.254781)"><g><path d="M 120.816406 -213.644531 C 147.460938 -213.644531 167.980469 -202.847656 182.378906 -181.253906 C 195.664062 -161.328125 202.304688 -133.785156 202.304688 -98.625 C 202.304688 -63.464844 195.664062 -35.921875 182.378906 -15.996094 C 167.980469 5.597656 147.460938 16.398438 120.816406 16.398438 C 108.753906 16.398438 98.089844 12.703125 88.828125 5.3125 C 80.238281 -1.539062 73.136719 -11.457031 67.511719 -24.445312 L 79.394531 -29.585938 L 92.335938 -29.585938 L 92.335938 12.945312 L 0.863281 12.945312 L 0.863281 -259.507812 L 92.335938 -259.507812 L 92.335938 -167.664062 L 79.394531 -167.664062 L 67.511719 -172.804688 C 73.136719 -185.792969 80.238281 -195.710938 88.828125 -202.5625 C 98.09375 -209.953125 108.753906 -213.644531 120.816406 -213.644531 Z M 120.816406 -187.757812 C 114.792969 -187.757812 109.511719 -185.945312 104.972656 -182.320312 C 99.75 -178.15625 95.183594 -171.558594 91.273438 -162.519531 L 66.449219 -167.664062 L 66.449219 -246.5625 L 79.394531 -246.5625 L 79.394531 -233.617188 L 13.808594 -233.617188 L 13.808594 -246.5625 L 26.753906 -246.5625 L 26.753906 0 L 13.808594 0 L 13.808594 -12.945312 L 79.394531 -12.945312 L 79.394531 0 L 66.449219 0 L 66.449219 -29.585938 L 91.273438 -34.730469 C 95.183594 -25.691406 99.75 -19.09375 104.972656 -14.929688 C 109.511719 -11.304688 114.792969 -9.492188 120.816406 -9.492188 C 138.222656 -9.492188 151.5625 -16.449219 160.835938 -30.355469 C 171.222656 -45.9375 176.414062 -68.691406 176.414062 -98.625 C 176.414062 -128.558594 171.222656 -151.3125 160.835938 -166.890625 C 151.5625 -180.800781 138.222656 -187.757812 120.816406 -187.757812 Z M 101.582031 -71.132812 C 102.953125 -71.132812 104.070312 -71.394531 104.925781 -71.910156 C 105.960938 -72.539062 106.949219 -73.667969 107.898438 -75.296875 C 110.839844 -80.355469 112.308594 -88.128906 112.308594 -98.625 C 112.308594 -109.121094 110.839844 -116.894531 107.898438 -121.953125 C 106.949219 -123.582031 105.960938 -124.710938 104.925781 -125.339844 C 104.070312 -125.855469 102.953125 -126.117188 101.582031 -126.117188 C 100.5 -126.117188 99.644531 -125.917969 99.019531 -125.515625 C 98.15625 -124.960938 97.308594 -123.90625 96.476562 -122.351562 C 93.71875 -117.191406 92.335938 -109.28125 92.335938 -98.625 C 92.335938 -87.964844 93.71875 -80.058594 96.476562 -74.894531 C 97.308594 -73.34375 98.15625 -72.289062 99.019531 -71.734375 C 99.644531 -71.332031 100.5 -71.132812 101.582031 -71.132812 Z M 101.582031 -45.242188 C 95.4375 -45.242188 89.921875 -46.8125 85.039062 -49.945312 C 80.394531 -52.925781 76.597656 -57.171875 73.648438 -62.683594 C 68.847656 -71.660156 66.449219 -83.640625 66.449219 -98.625 C 66.449219 -113.609375 68.847656 -125.589844 73.648438 -134.5625 C 76.597656 -140.078125 80.394531 -144.324219 85.039062 -147.304688 C 89.921875 -150.4375 95.4375 -152.003906 101.582031 -152.003906 C 107.773438 -152.003906 113.359375 -150.5 118.335938 -147.484375 C 123.136719 -144.574219 127.117188 -140.402344 130.28125 -134.964844 C 135.558594 -125.886719 138.199219 -113.773438 138.199219 -98.625 C 138.199219 -83.476562 135.558594 -71.363281 130.28125 -62.285156 C 127.117188 -56.847656 123.136719 -52.675781 118.335938 -49.765625 C 113.359375 -46.75 107.773438 -45.242188 101.582031 -45.242188 Z M 101.582031 -45.242188 "/></g></g></g><g fill="#ffffff" fill-opacity="1"><g transform="translate(612.768904, 320.254781)"><g><path d="M 120.816406 -213.644531 C 147.460938 -213.644531 167.980469 -202.847656 182.378906 -181.253906 C 195.664062 -161.328125 202.304688 -133.785156 202.304688 -98.625 C 202.304688 -63.464844 195.664062 -35.921875 182.378906 -15.996094 C 167.980469 5.597656 147.460938 16.398438 120.816406 16.398438 C 108.753906 16.398438 98.089844 12.703125 88.828125 5.3125 C 80.238281 -1.539062 73.136719 -11.457031 67.511719 -24.445312 L 79.394531 -29.585938 L 92.335938 -29.585938 L 92.335938 12.945312 L 0.863281 12.945312 L 0.863281 -259.507812 L 92.335938 -259.507812 L 92.335938 -167.664062 L 79.394531 -167.664062 L 67.511719 -172.804688 C 73.136719 -185.792969 80.238281 -195.710938 88.828125 -202.5625 C 98.09375 -209.953125 108.753906 -213.644531 120.816406 -213.644531 Z M 120.816406 -187.757812 C 114.792969 -187.757812 109.511719 -185.945312 104.972656 -182.320312 C 99.75 -178.15625 95.183594 -171.558594 91.273438 -162.519531 L 66.449219 -167.664062 L 66.449219 -246.5625 L 79.394531 -246.5625 L 79.394531 -233.617188 L 13.808594 -233.617188 L 13.808594 -246.5625 L 26.753906 -246.5625 L 26.753906 0 L 13.808594 0 L 13.808594 -12.945312 L 79.394531 -12.945312 L 79.394531 0 L 66.449219 0 L 66.449219 -29.585938 L 91.273438 -34.730469 C 95.183594 -25.691406 99.75 -19.09375 104.972656 -14.929688 C 109.511719 -11.304688 114.792969 -9.492188 120.816406 -9.492188 C 138.222656 -9.492188 151.5625 -16.449219 160.835938 -30.355469 C 171.222656 -45.9375 176.414062 -68.691406 176.414062 -98.625 C 176.414062 -128.558594 171.222656 -151.3125 160.835938 -166.890625 C 151.5625 -180.800781 138.222656 -187.757812 120.816406 -187.757812 Z M 101.582031 -71.132812 C 102.953125 -71.132812 104.070312 -71.394531 104.925781 -71.910156 C 105.960938 -72.539062 106.949219 -73.667969 107.898438 -75.296875 C 110.839844 -80.355469 112.308594 -88.128906 112.308594 -98.625 C 112.308594 -109.121094 110.839844 -116.894531 107.898438 -121.953125 C 106.949219 -123.582031 105.960938 -124.710938 104.925781 -125.339844 C 104.070312 -125.855469 102.953125 -126.117188 101.582031 -126.117188 C 100.5 -126.117188 99.644531 -125.917969 99.019531 -125.515625 C 98.15625 -124.960938 97.308594 -123.90625 96.476562 -122.351562 C 93.71875 -117.191406 92.335938 -109.28125 92.335938 -98.625 C 92.335938 -87.964844 93.71875 -80.058594 96.476562 -74.894531 C 97.308594 -73.34375 98.15625 -72.289062 99.019531 -71.734375 C 99.644531 -71.332031 100.5 -71.132812 101.582031 -71.132812 Z M 101.582031 -45.242188 C 95.4375 -45.242188 89.921875 -46.8125 85.039062 -49.945312 C 80.394531 -52.925781 76.597656 -57.171875 73.648438 -62.683594 C 68.847656 -71.660156 66.449219 -83.640625 66.449219 -98.625 C 66.449219 -113.609375 68.847656 -125.589844 73.648438 -134.5625 C 76.597656 -140.078125 80.394531 -144.324219 85.039062 -147.304688 C 89.921875 -150.4375 95.4375 -152.003906 101.582031 -152.003906 C 107.773438 -152.003906 113.359375 -150.5 118.335938 -147.484375 C 123.136719 -144.574219 127.117188 -140.402344 130.28125 -134.964844 C 135.558594 -125.886719 138.199219 -113.773438 138.199219 -98.625 C 138.199219 -83.476562 135.558594 -71.363281 130.28125 -62.285156 C 127.117188 -56.847656 123.136719 -52.675781 118.335938 -49.765625 C 113.359375 -46.75 107.773438 -45.242188 101.582031 -45.242188 Z M 101.582031 -45.242188 "/></g></g></g><g fill="#ffffff" fill-opacity="1"><g transform="translate(801.142125, 320.254781)"><g><path d="M 33.09375 45.195312 L 57.75 -28.28125 L 70.023438 -24.164062 L 57.941406 -19.515625 L -15.394531 -210.195312 L 77.644531 -210.195312 L 113.027344 -125.820312 L 101.089844 -120.816406 L 88.941406 -125.28125 L 120.167969 -210.195312 L 211.160156 -210.195312 L 114.167969 62.257812 L 27.371094 62.257812 Z M 57.640625 53.429688 L 45.367188 49.3125 L 45.367188 36.367188 L 105.035156 36.367188 L 105.035156 49.3125 L 92.839844 44.972656 L 180.617188 -201.589844 L 192.8125 -197.25 L 192.8125 -184.304688 L 129.199219 -184.304688 L 129.199219 -197.25 L 141.347656 -192.78125 L 101.878906 -85.457031 L 57.101562 -192.242188 L 69.039062 -197.25 L 69.039062 -184.304688 L 3.453125 -184.304688 L 3.453125 -197.25 L 15.535156 -201.898438 L 83.777344 -24.460938 Z M 57.640625 53.429688 "/></g></g></g><g fill="#ffffff" fill-opacity="1"><g transform="translate(14.609912, 627.047171)"><g/></g></g><g fill="#ffffff" fill-opacity="1"><g transform="translate(73.291597, 627.047171)"><g/></g></g><g fill="#ffffff" fill-opacity="1"><g transform="translate(131.973283, 627.047171)"><g/></g></g><g fill="#ffffff" fill-opacity="1"><g transform="translate(190.659553, 627.047171)"><g><path d="M 202.304688 -246.5625 L 202.304688 12.945312 L 110.828125 12.945312 L 110.828125 -90.734375 L 123.773438 -90.734375 L 123.773438 -77.789062 L 79.394531 -77.789062 L 79.394531 -90.734375 L 92.335938 -90.734375 L 92.335938 12.945312 L 0.863281 12.945312 L 0.863281 -259.507812 L 92.335938 -259.507812 L 92.335938 -155.828125 L 79.394531 -155.828125 L 79.394531 -168.773438 L 123.773438 -168.773438 L 123.773438 -155.828125 L 110.828125 -155.828125 L 110.828125 -259.507812 L 202.304688 -259.507812 Z M 176.414062 -246.5625 L 189.359375 -246.5625 L 189.359375 -233.617188 L 123.773438 -233.617188 L 123.773438 -246.5625 L 136.71875 -246.5625 L 136.71875 -142.882812 L 66.449219 -142.882812 L 66.449219 -246.5625 L 79.394531 -246.5625 L 79.394531 -233.617188 L 13.808594 -233.617188 L 13.808594 -246.5625 L 26.753906 -246.5625 L 26.753906 0 L 13.808594 0 L 13.808594 -12.945312 L 79.394531 -12.945312 L 79.394531 0 L 66.449219 0 L 66.449219 -103.679688 L 136.71875 -103.679688 L 136.71875 0 L 123.773438 0 L 123.773438 -12.945312 L 189.359375 -12.945312 L 189.359375 0 L 176.414062 0 Z M 176.414062 -246.5625 "/></g></g></g><g fill="#ffffff" fill-opacity="1"><g transform="translate(392.840259, 627.047171)"><g><path d="M 198.851562 -197.25 L 198.851562 12.945312 L 107.378906 12.945312 L 107.378906 -29.585938 L 120.320312 -29.585938 L 132.203125 -24.445312 C 126.578125 -11.457031 119.476562 -1.539062 110.886719 5.3125 C 101.625 12.703125 90.960938 16.398438 78.898438 16.398438 C 52.253906 16.398438 31.734375 5.597656 17.335938 -15.996094 C 4.054688 -35.921875 -2.589844 -63.464844 -2.589844 -98.625 C -2.589844 -133.785156 4.054688 -161.328125 17.335938 -181.253906 C 31.734375 -202.847656 52.253906 -213.644531 78.898438 -213.644531 C 90.960938 -213.644531 101.625 -209.953125 110.886719 -202.5625 C 119.476562 -195.710938 126.578125 -185.792969 132.203125 -172.804688 L 120.320312 -167.664062 L 107.378906 -167.664062 L 107.378906 -210.195312 L 198.851562 -210.195312 Z M 172.960938 -197.25 L 185.90625 -197.25 L 185.90625 -184.304688 L 120.320312 -184.304688 L 120.320312 -197.25 L 133.265625 -197.25 L 133.265625 -167.664062 L 108.441406 -162.519531 C 104.53125 -171.558594 99.964844 -178.15625 94.746094 -182.320312 C 90.203125 -185.945312 84.921875 -187.757812 78.898438 -187.757812 C 61.492188 -187.757812 48.152344 -180.800781 38.878906 -166.890625 C 28.492188 -151.3125 23.300781 -128.558594 23.300781 -98.625 C 23.300781 -68.691406 28.492188 -45.9375 38.878906 -30.355469 C 48.152344 -16.449219 61.492188 -9.492188 78.898438 -9.492188 C 84.921875 -9.492188 90.203125 -11.304688 94.746094 -14.929688 C 99.964844 -19.09375 104.53125 -25.691406 108.441406 -34.730469 L 133.265625 -29.585938 L 133.265625 0 L 120.320312 0 L 120.320312 -12.945312 L 185.90625 -12.945312 L 185.90625 0 L 172.960938 0 Z M 98.132812 -71.132812 C 99.21875 -71.132812 100.070312 -71.332031 100.695312 -71.734375 C 101.558594 -72.289062 102.40625 -73.34375 103.238281 -74.894531 C 105.996094 -80.058594 107.378906 -87.964844 107.378906 -98.625 C 107.378906 -109.28125 105.996094 -117.191406 103.238281 -122.351562 C 102.40625 -123.90625 101.558594 -124.960938 100.695312 -125.515625 C 100.070312 -125.917969 99.21875 -126.117188 98.132812 -126.117188 C 96.761719 -126.117188 95.648438 -125.855469 94.789062 -125.339844 C 93.753906 -124.710938 92.765625 -123.582031 91.816406 -121.953125 C 88.875 -116.894531 87.40625 -109.121094 87.40625 -98.625 C 87.40625 -88.128906 88.875 -80.355469 91.816406 -75.296875 C 92.765625 -73.667969 93.753906 -72.539062 94.789062 -71.910156 C 95.648438 -71.394531 96.761719 -71.132812 98.132812 -71.132812 Z M 98.132812 -45.242188 C 91.941406 -45.242188 86.355469 -46.75 81.378906 -49.765625 C 76.578125 -52.675781 72.597656 -56.847656 69.433594 -62.285156 C 64.15625 -71.363281 61.515625 -83.476562 61.515625 -98.625 C 61.515625 -113.773438 64.15625 -125.886719 69.433594 -134.964844 C 72.597656 -140.402344 76.578125 -144.574219 81.378906 -147.484375 C 86.355469 -150.5 91.941406 -152.003906 98.132812 -152.003906 C 104.277344 -152.003906 109.792969 -150.4375 114.679688 -147.304688 C 119.320312 -144.324219 123.117188 -140.078125 126.066406 -134.5625 C 130.867188 -125.589844 133.265625 -113.609375 133.265625 -98.625 C 133.265625 -83.640625 130.867188 -71.660156 126.066406 -62.683594 C 123.117188 -57.171875 119.320312 -52.925781 114.679688 -49.945312 C 109.792969 -46.8125 104.277344 -45.242188 98.132812 -45.242188 Z M 98.132812 -45.242188 "/></g></g></g><g fill="#ffffff" fill-opacity="1"><g transform="translate(592.555333, 627.047171)"><g><path d="M 127.226562 -213.644531 C 151.722656 -213.644531 170.601562 -204.359375 183.867188 -185.789062 C 196.160156 -168.578125 202.304688 -144.785156 202.304688 -114.40625 L 202.304688 12.945312 L 110.828125 12.945312 L 110.828125 -89.253906 C 110.828125 -102.890625 109.386719 -112.988281 106.5 -119.546875 C 105.152344 -122.613281 104.007812 -124.144531 103.0625 -124.144531 C 101.726562 -124.144531 100.371094 -123.125 98.992188 -121.085938 C 96.097656 -116.800781 93.816406 -109.746094 92.15625 -99.917969 L 79.394531 -102.078125 L 92.335938 -102.078125 L 92.335938 12.945312 L 0.863281 12.945312 L 0.863281 -210.195312 L 92.335938 -210.195312 L 92.335938 -167.167969 L 79.394531 -167.167969 L 67.609375 -172.527344 C 73.515625 -185.519531 81.417969 -195.484375 91.316406 -202.425781 C 101.40625 -209.496094 113.246094 -213.234375 126.839844 -213.640625 L 127.03125 -213.644531 Z M 127.226562 -187.757812 L 127.226562 -200.703125 L 127.613281 -187.761719 C 119.179688 -187.511719 112.035156 -185.332031 106.179688 -181.226562 C 100.132812 -176.988281 95.132812 -170.515625 91.175781 -161.8125 L 66.449219 -167.167969 L 66.449219 -197.25 L 79.394531 -197.25 L 79.394531 -184.304688 L 13.808594 -184.304688 L 13.808594 -197.25 L 26.753906 -197.25 L 26.753906 0 L 13.808594 0 L 13.808594 -12.945312 L 79.394531 -12.945312 L 79.394531 0 L 66.449219 0 L 66.449219 -103.164062 L 66.628906 -104.234375 C 71.789062 -134.765625 83.933594 -150.035156 103.0625 -150.035156 C 109.398438 -150.035156 115.023438 -148.050781 119.941406 -144.082031 C 124.125 -140.710938 127.542969 -136.007812 130.199219 -129.972656 C 134.546875 -120.09375 136.71875 -106.519531 136.71875 -89.253906 L 136.71875 0 L 123.773438 0 L 123.773438 -12.945312 L 189.359375 -12.945312 L 189.359375 0 L 176.414062 0 L 176.414062 -114.40625 C 176.414062 -139.253906 171.875 -158.03125 162.800781 -170.742188 C 154.695312 -182.085938 142.839844 -187.757812 127.226562 -187.757812 Z M 127.226562 -187.757812 "/></g></g></g><g fill="#ffffff" fill-opacity="1"><g transform="translate(793.749811, 627.047171)"><g><path d="M 198.851562 -246.5625 L 198.851562 12.945312 L 107.378906 12.945312 L 107.378906 -29.585938 L 120.320312 -29.585938 L 132.203125 -24.445312 C 126.578125 -11.457031 119.476562 -1.539062 110.886719 5.3125 C 101.625 12.703125 90.960938 16.398438 78.898438 16.398438 C 52.253906 16.398438 31.734375 5.597656 17.335938 -15.996094 C 4.054688 -35.921875 -2.589844 -63.464844 -2.589844 -98.625 C -2.589844 -133.785156 4.054688 -161.328125 17.335938 -181.253906 C 31.734375 -202.847656 52.253906 -213.644531 78.898438 -213.644531 C 90.960938 -213.644531 101.625 -209.953125 110.886719 -202.5625 C 119.476562 -195.710938 126.578125 -185.792969 132.203125 -172.804688 L 120.320312 -167.664062 L 107.378906 -167.664062 L 107.378906 -259.507812 L 198.851562 -259.507812 Z M 172.960938 -246.5625 L 185.90625 -246.5625 L 185.90625 -233.617188 L 120.320312 -233.617188 L 120.320312 -246.5625 L 133.265625 -246.5625 L 133.265625 -167.664062 L 108.441406 -162.519531 C 104.53125 -171.558594 99.964844 -178.15625 94.746094 -182.320312 C 90.203125 -185.945312 84.921875 -187.757812 78.898438 -187.757812 C 61.492188 -187.757812 48.152344 -180.800781 38.878906 -166.890625 C 28.492188 -151.3125 23.300781 -128.558594 23.300781 -98.625 C 23.300781 -68.691406 28.492188 -45.9375 38.878906 -30.355469 C 48.152344 -16.449219 61.492188 -9.492188 78.898438 -9.492188 C 84.921875 -9.492188 90.203125 -11.304688 94.746094 -14.929688 C 99.964844 -19.09375 104.53125 -25.691406 108.441406 -34.730469 L 133.265625 -29.585938 L 133.265625 0 L 120.320312 0 L 120.320312 -12.945312 L 185.90625 -12.945312 L 185.90625 0 L 172.960938 0 Z M 98.132812 -71.132812 C 99.21875 -71.132812 100.070312 -71.332031 100.695312 -71.734375 C 101.558594 -72.289062 102.40625 -73.34375 103.238281 -74.894531 C 105.996094 -80.058594 107.378906 -87.964844 107.378906 -98.625 C 107.378906 -109.28125 105.996094 -117.191406 103.238281 -122.351562 C 102.40625 -123.90625 101.558594 -124.960938 100.695312 -125.515625 C 100.070312 -125.917969 99.21875 -126.117188 98.132812 -126.117188 C 96.761719 -126.117188 95.648438 -125.855469 94.789062 -125.339844 C 93.753906 -124.710938 92.765625 -123.582031 91.816406 -121.953125 C 88.875 -116.894531 87.40625 -109.121094 87.40625 -98.625 C 87.40625 -88.128906 88.875 -80.355469 91.816406 -75.296875 C 92.765625 -73.667969 93.753906 -72.539062 94.789062 -71.910156 C 95.648438 -71.394531 96.761719 -71.132812 98.132812 -71.132812 Z M 98.132812 -45.242188 C 91.941406 -45.242188 86.355469 -46.75 81.378906 -49.765625 C 76.578125 -52.675781 72.597656 -56.847656 69.433594 -62.285156 C 64.15625 -71.363281 61.515625 -83.476562 61.515625 -98.625 C 61.515625 -113.773438 64.15625 -125.886719 69.433594 -134.964844 C 72.597656 -140.402344 76.578125 -144.574219 81.378906 -147.484375 C 86.355469 -150.5 91.941406 -152.003906 98.132812 -152.003906 C 104.277344 -152.003906 109.792969 -150.4375 114.679688 -147.304688 C 119.320312 -144.324219 123.117188 -140.078125 126.066406 -134.5625 C 130.867188 -125.589844 133.265625 -113.609375 133.265625 -98.625 C 133.265625 -83.640625 130.867188 -71.660156 126.066406 -62.683594 C 123.117188 -57.171875 119.320312 -52.925781 114.679688 -49.945312 C 109.792969 -46.8125 104.277344 -45.242188 98.132812 -45.242188 Z M 98.132812 -45.242188 "/></g></g></g><g fill="#ffffff" fill-opacity="1"><g transform="translate(993.464924, 627.047171)"><g><path d="M 0.863281 -259.507812 L 92.832031 -259.507812 L 92.832031 12.945312 L 0.863281 12.945312 Z M 26.753906 -233.617188 L 26.753906 -12.945312 L 66.941406 -12.945312 L 66.941406 -233.617188 Z M 26.753906 -233.617188 "/></g></g></g><g fill="#ffffff" fill-opacity="1"><g transform="translate(1087.15832, 627.047171)"><g><path d="M 198.851562 -98.625 C 198.851562 -94.472656 198.574219 -90.15625 198.011719 -85.675781 C 197.488281 -81.496094 196.878906 -77.476562 196.179688 -73.625 L 194.246094 -62.996094 L 77.421875 -62.996094 L 77.421875 -75.941406 L 89.890625 -79.421875 C 91.238281 -74.585938 92.890625 -71.210938 94.851562 -69.296875 C 95.953125 -68.21875 97.375 -67.679688 99.117188 -67.679688 C 100.445312 -67.679688 101.351562 -67.882812 101.832031 -68.28125 C 102.617188 -68.929688 103.304688 -70.332031 103.898438 -72.480469 L 107.082031 -84.023438 L 196.859375 -66.625 L 192.292969 -52.679688 C 185.203125 -31.035156 173.585938 -14.136719 157.449219 -1.988281 C 141.171875 10.269531 121.398438 16.398438 98.132812 16.398438 C 66.230469 16.398438 41.347656 6.019531 23.476562 -14.730469 C 6.097656 -34.910156 -2.589844 -62.875 -2.589844 -98.625 C -2.589844 -134.375 6.097656 -162.339844 23.476562 -182.519531 C 41.347656 -203.269531 66.230469 -213.644531 98.132812 -213.644531 C 130.390625 -213.644531 155.371094 -203.253906 173.078125 -182.46875 C 190.261719 -162.296875 198.851562 -134.347656 198.851562 -98.625 Z M 172.960938 -98.625 C 172.960938 -127.992188 166.433594 -150.34375 153.371094 -165.679688 C 140.832031 -180.398438 122.417969 -187.757812 98.132812 -187.757812 C 74.144531 -187.757812 55.800781 -180.378906 43.09375 -165.625 C 29.898438 -150.300781 23.300781 -127.96875 23.300781 -98.625 C 23.300781 -69.28125 29.898438 -46.949219 43.09375 -31.625 C 55.800781 -16.871094 74.144531 -9.492188 98.132812 -9.492188 C 115.628906 -9.492188 130.210938 -13.886719 141.875 -22.667969 C 153.683594 -31.558594 162.285156 -44.25 167.6875 -60.738281 L 179.988281 -56.710938 L 177.527344 -44 L 113.914062 -56.328125 L 116.378906 -69.039062 L 128.855469 -65.59375 C 126.820312 -58.210938 123.316406 -52.460938 118.347656 -48.34375 C 113.078125 -43.976562 106.667969 -41.792969 99.117188 -41.792969 C 90.339844 -41.792969 82.886719 -44.789062 76.757812 -50.78125 C 71.480469 -55.933594 67.546875 -63.160156 64.953125 -72.460938 L 60.367188 -88.886719 L 183.441406 -88.886719 L 183.441406 -75.941406 L 170.707031 -78.257812 C 171.320312 -81.636719 171.859375 -85.179688 172.324219 -88.886719 C 172.75 -92.300781 172.960938 -95.546875 172.960938 -98.625 Z M 106.425781 -113.710938 C 104.457031 -120.402344 102.304688 -125.164062 99.972656 -127.996094 C 99.109375 -129.042969 98.496094 -129.566406 98.132812 -129.566406 C 96.109375 -129.566406 94.535156 -128.933594 93.414062 -127.660156 C 91.320312 -125.289062 89.746094 -121.105469 88.6875 -115.113281 L 75.941406 -117.363281 L 75.941406 -130.308594 L 118.84375 -130.308594 L 118.84375 -117.363281 Z M 136.144531 -104.417969 L 60.511719 -104.417969 L 63.191406 -119.613281 C 65.09375 -130.386719 68.695312 -138.777344 74 -144.789062 C 80.277344 -151.902344 88.320312 -155.457031 98.132812 -155.457031 C 113.464844 -155.457031 124.507812 -143.976562 131.261719 -121.015625 Z M 136.144531 -104.417969 "/></g></g></g><g clip-path="url(#af8c9fd686)"><g fill="#ffffff" fill-opacity="1"><g transform="translate(1283.421532, 627.047171)"><g><path d="M 125.746094 -213.644531 C 138.859375 -213.644531 150.851562 -210.054688 161.726562 -202.875 C 172.546875 -195.730469 181.097656 -185.089844 187.382812 -170.945312 L 190.90625 -163.011719 L 130 -99.367188 L 120.988281 -112.507812 C 115.667969 -120.265625 109.367188 -124.144531 102.078125 -124.144531 C 102.570312 -124.144531 103.027344 -124.242188 103.453125 -124.4375 L 103.464844 -124.359375 C 102.292969 -123.191406 101.054688 -121.019531 99.738281 -117.839844 C 96.292969 -109.511719 93.804688 -97.117188 92.28125 -80.664062 L 79.394531 -81.859375 L 92.335938 -81.859375 L 92.335938 12.945312 L 0.863281 12.945312 L 0.863281 -210.195312 L 92.335938 -210.195312 L 92.335938 -167.664062 L 79.394531 -167.664062 L 67.570312 -172.9375 C 73.296875 -185.769531 80.976562 -195.617188 90.617188 -202.488281 C 100.472656 -209.515625 112.050781 -213.230469 125.347656 -213.640625 L 125.546875 -213.644531 Z M 125.746094 -187.757812 L 125.746094 -200.703125 L 126.144531 -187.761719 C 118.074219 -187.515625 111.242188 -185.394531 105.644531 -181.40625 C 99.832031 -177.265625 95.023438 -170.925781 91.214844 -162.386719 L 66.449219 -167.664062 L 66.449219 -197.25 L 79.394531 -197.25 L 79.394531 -184.304688 L 13.808594 -184.304688 L 13.808594 -197.25 L 26.753906 -197.25 L 26.753906 0 L 13.808594 0 L 13.808594 -12.945312 L 79.394531 -12.945312 L 79.394531 0 L 66.449219 0 L 66.449219 -82.457031 L 66.503906 -83.050781 C 68.265625 -102.101562 71.371094 -117 75.816406 -127.738281 C 81.964844 -142.601562 90.71875 -150.035156 102.078125 -150.035156 C 118.457031 -150.035156 131.878906 -142.40625 142.339844 -127.148438 L 131.664062 -119.828125 L 122.3125 -128.777344 L 166.199219 -174.640625 L 175.550781 -165.691406 L 163.722656 -160.433594 C 159.488281 -169.960938 154.066406 -176.90625 147.460938 -181.269531 C 140.914062 -185.59375 133.675781 -187.757812 125.746094 -187.757812 Z M 125.746094 -187.757812 "/></g></g></g></g><g fill="#3f74c0" fill-opacity="1"><g transform="translate(14.609912, 320.254781)"><g><path d="M 189.359375 -246.5625 L 189.359375 0 L 123.78125 0 L 123.78125 -90.734375 L 79.390625 -90.734375 L 79.390625 0 L 13.8125 0 L 13.8125 -246.5625 L 79.390625 -246.5625 L 79.390625 -155.828125 L 123.78125 -155.828125 L 123.78125 -246.5625 Z M 189.359375 -246.5625 "/></g></g></g><g fill="#3f74c0" fill-opacity="1"><g transform="translate(216.790618, 320.254781)"><g><path d="M 98.125 3.453125 C 70.1875 3.453125 48.570312 -5.421875 33.28125 -23.171875 C 18 -40.929688 10.359375 -66.082031 10.359375 -98.625 C 10.359375 -131.164062 18 -156.3125 33.28125 -174.0625 C 48.570312 -191.820312 70.1875 -200.703125 98.125 -200.703125 C 126.40625 -200.703125 148.101562 -191.820312 163.21875 -174.0625 C 178.34375 -156.3125 185.90625 -131.164062 185.90625 -98.625 C 185.90625 -66.082031 178.34375 -40.929688 163.21875 -23.171875 C 148.101562 -5.421875 126.40625 3.453125 98.125 3.453125 Z M 98.125 -58.1875 C 105.6875 -58.1875 111.519531 -61.71875 115.625 -68.78125 C 119.738281 -75.851562 121.796875 -85.800781 121.796875 -98.625 C 121.796875 -111.445312 119.738281 -121.390625 115.625 -128.453125 C 111.519531 -135.523438 105.6875 -139.0625 98.125 -139.0625 C 90.570312 -139.0625 84.738281 -135.523438 80.625 -128.453125 C 76.519531 -121.390625 74.46875 -111.445312 74.46875 -98.625 C 74.46875 -85.800781 76.519531 -75.851562 80.625 -68.78125 C 84.738281 -61.71875 90.570312 -58.1875 98.125 -58.1875 Z M 98.125 -58.1875 "/></g></g></g><g fill="#3f74c0" fill-opacity="1"><g transform="translate(413.05383, 320.254781)"><g><path d="M 120.8125 -200.703125 C 142.84375 -200.703125 159.773438 -191.820312 171.609375 -174.0625 C 183.441406 -156.3125 189.359375 -131.164062 189.359375 -98.625 C 189.359375 -66.082031 183.441406 -40.929688 171.609375 -23.171875 C 159.773438 -5.421875 142.84375 3.453125 120.8125 3.453125 C 102.726562 3.453125 88.921875 -7.5625 79.390625 -29.59375 L 79.390625 0 L 13.8125 0 L 13.8125 -246.5625 L 79.390625 -246.5625 L 79.390625 -167.65625 C 88.921875 -189.6875 102.726562 -200.703125 120.8125 -200.703125 Z M 101.578125 -58.1875 C 109.140625 -58.1875 114.972656 -61.71875 119.078125 -68.78125 C 123.191406 -75.851562 125.25 -85.800781 125.25 -98.625 C 125.25 -111.445312 123.191406 -121.390625 119.078125 -128.453125 C 114.972656 -135.523438 109.140625 -139.0625 101.578125 -139.0625 C 94.347656 -139.0625 88.84375 -135.523438 85.0625 -128.453125 C 81.28125 -121.390625 79.390625 -111.445312 79.390625 -98.625 C 79.390625 -85.800781 81.28125 -75.851562 85.0625 -68.78125 C 88.84375 -61.71875 94.347656 -58.1875 101.578125 -58.1875 Z M 101.578125 -58.1875 "/></g></g></g><g fill="#3f74c0" fill-opacity="1"><g transform="translate(612.768904, 320.254781)"><g><path d="M 120.8125 -200.703125 C 142.84375 -200.703125 159.773438 -191.820312 171.609375 -174.0625 C 183.441406 -156.3125 189.359375 -131.164062 189.359375 -98.625 C 189.359375 -66.082031 183.441406 -40.929688 171.609375 -23.171875 C 159.773438 -5.421875 142.84375 3.453125 120.8125 3.453125 C 102.726562 3.453125 88.921875 -7.5625 79.390625 -29.59375 L 79.390625 0 L 13.8125 0 L 13.8125 -246.5625 L 79.390625 -246.5625 L 79.390625 -167.65625 C 88.921875 -189.6875 102.726562 -200.703125 120.8125 -200.703125 Z M 101.578125 -58.1875 C 109.140625 -58.1875 114.972656 -61.71875 119.078125 -68.78125 C 123.191406 -75.851562 125.25 -85.800781 125.25 -98.625 C 125.25 -111.445312 123.191406 -121.390625 119.078125 -128.453125 C 114.972656 -135.523438 109.140625 -139.0625 101.578125 -139.0625 C 94.347656 -139.0625 88.84375 -135.523438 85.0625 -128.453125 C 81.28125 -121.390625 79.390625 -111.445312 79.390625 -98.625 C 79.390625 -85.800781 81.28125 -75.851562 85.0625 -68.78125 C 88.84375 -61.71875 94.347656 -58.1875 101.578125 -58.1875 Z M 101.578125 -58.1875 "/></g></g></g><g fill="#3f74c0" fill-opacity="1"><g transform="translate(801.142125, 320.254781)"><g><path d="M 45.375 49.3125 L 70.03125 -24.15625 L 3.453125 -197.25 L 69.03125 -197.25 L 101.09375 -120.8125 L 129.203125 -197.25 L 192.8125 -197.25 L 105.03125 49.3125 Z M 45.375 49.3125 "/></g></g></g><g fill="#3f74c0" fill-opacity="1"><g transform="translate(14.609912, 627.047171)"><g/></g></g><g fill="#3f74c0" fill-opacity="1"><g transform="translate(73.291597, 627.047171)"><g/></g></g><g fill="#3f74c0" fill-opacity="1"><g transform="translate(131.973283, 627.047171)"><g/></g></g><g fill="#3f74c0" fill-opacity="1"><g transform="translate(190.659553, 627.047171)"><g><path d="M 189.359375 -246.5625 L 189.359375 0 L 123.78125 0 L 123.78125 -90.734375 L 79.390625 -90.734375 L 79.390625 0 L 13.8125 0 L 13.8125 -246.5625 L 79.390625 -246.5625 L 79.390625 -155.828125 L 123.78125 -155.828125 L 123.78125 -246.5625 Z M 189.359375 -246.5625 "/></g></g></g><g fill="#3f74c0" fill-opacity="1"><g transform="translate(392.840259, 627.047171)"><g><path d="M 185.90625 -197.25 L 185.90625 0 L 120.328125 0 L 120.328125 -29.59375 C 110.785156 -7.5625 96.976562 3.453125 78.90625 3.453125 C 56.875 3.453125 39.941406 -5.421875 28.109375 -23.171875 C 16.273438 -40.929688 10.359375 -66.082031 10.359375 -98.625 C 10.359375 -131.164062 16.273438 -156.3125 28.109375 -174.0625 C 39.941406 -191.820312 56.875 -200.703125 78.90625 -200.703125 C 96.976562 -200.703125 110.785156 -189.6875 120.328125 -167.65625 L 120.328125 -197.25 Z M 98.125 -58.1875 C 105.363281 -58.1875 110.875 -61.71875 114.65625 -68.78125 C 118.4375 -75.851562 120.328125 -85.800781 120.328125 -98.625 C 120.328125 -111.445312 118.4375 -121.390625 114.65625 -128.453125 C 110.875 -135.523438 105.363281 -139.0625 98.125 -139.0625 C 90.570312 -139.0625 84.738281 -135.523438 80.625 -128.453125 C 76.519531 -121.390625 74.46875 -111.445312 74.46875 -98.625 C 74.46875 -85.800781 76.519531 -75.851562 80.625 -68.78125 C 84.738281 -61.71875 90.570312 -58.1875 98.125 -58.1875 Z M 98.125 -58.1875 "/></g></g></g><g fill="#3f74c0" fill-opacity="1"><g transform="translate(592.555333, 627.047171)"><g><path d="M 127.21875 -200.703125 C 147.28125 -200.703125 162.648438 -193.222656 173.328125 -178.265625 C 184.015625 -163.304688 189.359375 -142.019531 189.359375 -114.40625 L 189.359375 0 L 123.78125 0 L 123.78125 -89.25 C 123.78125 -104.707031 121.96875 -116.546875 118.34375 -124.765625 C 114.726562 -132.984375 109.632812 -137.09375 103.0625 -137.09375 C 91.226562 -137.09375 83.335938 -125.421875 79.390625 -102.078125 L 79.390625 0 L 13.8125 0 L 13.8125 -197.25 L 79.390625 -197.25 L 79.390625 -167.171875 C 89.253906 -188.867188 105.195312 -200.046875 127.21875 -200.703125 Z M 127.21875 -200.703125 "/></g></g></g><g fill="#3f74c0" fill-opacity="1"><g transform="translate(793.749811, 627.047171)"><g><path d="M 185.90625 -246.5625 L 185.90625 0 L 120.328125 0 L 120.328125 -29.59375 C 110.785156 -7.5625 96.976562 3.453125 78.90625 3.453125 C 56.875 3.453125 39.941406 -5.421875 28.109375 -23.171875 C 16.273438 -40.929688 10.359375 -66.082031 10.359375 -98.625 C 10.359375 -131.164062 16.273438 -156.3125 28.109375 -174.0625 C 39.941406 -191.820312 56.875 -200.703125 78.90625 -200.703125 C 96.976562 -200.703125 110.785156 -189.6875 120.328125 -167.65625 L 120.328125 -246.5625 Z M 98.125 -58.1875 C 105.363281 -58.1875 110.875 -61.71875 114.65625 -68.78125 C 118.4375 -75.851562 120.328125 -85.800781 120.328125 -98.625 C 120.328125 -111.445312 118.4375 -121.390625 114.65625 -128.453125 C 110.875 -135.523438 105.363281 -139.0625 98.125 -139.0625 C 90.570312 -139.0625 84.738281 -135.523438 80.625 -128.453125 C 76.519531 -121.390625 74.46875 -111.445312 74.46875 -98.625 C 74.46875 -85.800781 76.519531 -75.851562 80.625 -68.78125 C 84.738281 -61.71875 90.570312 -58.1875 98.125 -58.1875 Z M 98.125 -58.1875 "/></g></g></g><g fill="#3f74c0" fill-opacity="1"><g transform="translate(993.464924, 627.047171)"><g><path d="M 79.890625 -246.5625 L 79.890625 0 L 13.8125 0 L 13.8125 -246.5625 Z M 79.890625 -246.5625 "/></g></g></g><g fill="#3f74c0" fill-opacity="1"><g transform="translate(1087.15832, 627.047171)"><g><path d="M 185.90625 -98.625 C 185.90625 -95.007812 185.65625 -91.226562 185.15625 -87.28125 C 184.664062 -83.332031 184.09375 -79.550781 183.4375 -75.9375 L 77.421875 -75.9375 C 81.367188 -61.800781 88.601562 -54.734375 99.125 -54.734375 C 108 -54.734375 113.75 -59.5 116.375 -69.03125 L 179.984375 -56.703125 C 173.742188 -37.640625 163.632812 -22.847656 149.65625 -12.328125 C 135.6875 -1.804688 118.507812 3.453125 98.125 3.453125 C 70.1875 3.453125 48.570312 -5.421875 33.28125 -23.171875 C 18 -40.929688 10.359375 -66.082031 10.359375 -98.625 C 10.359375 -131.164062 18 -156.3125 33.28125 -174.0625 C 48.570312 -191.820312 70.1875 -200.703125 98.125 -200.703125 C 126.40625 -200.703125 148.101562 -191.820312 163.21875 -174.0625 C 178.34375 -156.3125 185.90625 -131.164062 185.90625 -98.625 Z M 118.84375 -117.359375 C 113.914062 -134.128906 107.007812 -142.515625 98.125 -142.515625 C 86.289062 -142.515625 78.894531 -134.128906 75.9375 -117.359375 Z M 118.84375 -117.359375 "/></g></g></g><g fill="#3f74c0" fill-opacity="1"><g transform="translate(1283.421532, 627.047171)"><g><path d="M 125.75 -200.703125 C 136.269531 -200.703125 145.882812 -197.820312 154.59375 -192.0625 C 163.300781 -186.3125 170.285156 -177.519531 175.546875 -165.6875 L 131.671875 -119.828125 C 123.773438 -131.335938 113.910156 -137.09375 102.078125 -137.09375 C 96.484375 -137.09375 91.710938 -132.320312 87.765625 -122.78125 C 83.828125 -113.25 81.035156 -99.609375 79.390625 -81.859375 L 79.390625 0 L 13.8125 0 L 13.8125 -197.25 L 79.390625 -197.25 L 79.390625 -167.65625 C 88.921875 -189.03125 104.375 -200.046875 125.75 -200.703125 Z M 125.75 -200.703125 "/></g></g></g></g></g></svg>